<svg width="12" height="8" viewBox="0 0 12 8" fill="none" xmlns="http://www.w3.org/2000/svg">
<path d="M5.95695 2.53465L10.416 7.33775C10.5385 7.47001 10.7022 7.54276 10.8769 7.54276C11.0516 7.54276 11.2152 7.47001 11.3379 7.33775L11.7284 6.91688C11.8513 6.78483 11.9189 6.60832 11.9189 6.42022C11.9189 6.23212 11.8513 6.05582 11.7284 5.92367L6.41956 0.204803C6.2965 0.0721317 6.13205 -0.000519337 5.95724 2.57478e-06C5.78166 -0.00051935 5.61741 0.0720273 5.49425 0.204803L0.190509 5.91835C0.0676372 6.0505 -2.72182e-07 6.2268 -2.80409e-07 6.415C-2.88631e-07 6.6031 0.0676371 6.77941 0.190509 6.91166L0.581024 7.33243C0.835198 7.60623 1.24897 7.60623 1.50305 7.33243L5.95695 2.53465Z" fill="black"/>
</svg>
