<svg width="28" height="14" viewBox="0 0 28 14" fill="none" xmlns="http://www.w3.org/2000/svg">
<path d="M27.6792 6.22579C27.6789 6.22546 27.6786 6.22507 27.6782 6.22475L21.9632 0.537246C21.535 0.111176 20.8425 0.112762 20.4163 0.540965C19.9902 0.969113 19.9918 1.66162 20.42 2.08775L24.2571 5.90625H1.09375C0.489672 5.90625 0 6.39592 0 7C0 7.60407 0.489672 8.09375 1.09375 8.09375H24.257L20.42 11.9122C19.9919 12.3384 19.9902 13.0309 20.4164 13.459C20.8426 13.8873 21.5351 13.8888 21.9632 13.4627L27.6783 7.77525C27.6786 7.77492 27.6789 7.77454 27.6793 7.77421C28.1076 7.34666 28.1063 6.65191 27.6792 6.22579Z" fill="#323B47"/>
</svg>
