<svg width="23" height="23" viewBox="0 0 23 23" fill="none" xmlns="http://www.w3.org/2000/svg">
<path d="M22.2812 0H0.71875C0.322 0 0 0.322 0 0.71875V22.2812C0 22.678 0.322 23 0.71875 23H22.2812C22.678 23 23 22.678 23 22.2812V0.71875C23 0.322 22.678 0 22.2812 0ZM21.5625 21.5625H1.4375V1.4375H21.5625V21.5625Z" fill="#39BAF0"/>
<path d="M19.4062 2.875H3.59375C3.197 2.875 2.875 3.197 2.875 3.59375V19.4062C2.875 19.803 3.197 20.125 3.59375 20.125H19.4062C19.803 20.125 20.125 19.803 20.125 19.4062V3.59375C20.125 3.197 19.803 2.875 19.4062 2.875ZM10.7812 18.6875H4.3125V12.2188H10.7812V18.6875ZM10.7812 10.7812H4.3125V4.3125H10.7812V10.7812ZM18.6875 18.6875H12.2188V12.2188H18.6875V18.6875ZM18.6875 10.7812H12.2188V4.3125H18.6875V10.7812Z" fill="#39BAF0"/>
</svg>
