<svg width="19" height="19" viewBox="0 0 19 19" fill="#ffffff" xmlns="http://www.w3.org/2000/svg">
<path d="M11.5926 9.49938L18.6965 2.39524C18.8919 2.19967 18.9997 1.93877 19 1.66057C19 1.38221 18.8922 1.121 18.6965 0.925748L18.0739 0.303382C17.8782 0.107358 17.6173 0 17.3388 0C17.0608 0 16.7999 0.107358 16.6041 0.303382L9.50031 7.40707L2.39616 0.303382C2.20076 0.107358 1.9397 0 1.66134 0C1.38329 0 1.12224 0.107358 0.926829 0.303382L0.304 0.925748C-0.101333 1.33108 -0.101333 1.99037 0.304 2.39524L7.40799 9.49938L0.304 16.6032C0.108439 16.7991 0.000772358 17.06 0.000772358 17.3382C0.000772358 17.6164 0.108439 17.8773 0.304 18.073L0.926675 18.6954C1.12208 18.8913 1.38329 18.9988 1.66119 18.9988C1.93954 18.9988 2.2006 18.8913 2.39601 18.6954L9.50015 11.5915L16.604 18.6954C16.7997 18.8913 17.0606 18.9988 17.3387 18.9988H17.339C17.6172 18.9988 17.8781 18.8913 18.0738 18.6954L18.6963 18.073C18.8917 17.8775 18.9995 17.6164 18.9995 17.3382C18.9995 17.06 18.8917 16.7991 18.6963 16.6034L11.5926 9.49938Z"/>
</svg>
