<svg width="19" height="15" viewBox="0 0 19 15" fill="none" xmlns="http://www.w3.org/2000/svg">
<path d="M18.5925 1.16959C18.5743 1.12433 18.5517 1.07454 18.5245 1.02924C18.4566 0.920533 18.357 0.848113 18.2483 0.816429C17.9042 0.540217 17.465 0.377197 16.9804 0.377197H2.01953C1.39464 0.377197 0.846744 0.648884 0.475405 1.08355C0.452774 1.10169 0.434669 1.12433 0.416564 1.14696C0.402985 1.1651 0.389406 1.18773 0.380354 1.2058C0.140351 1.53636 0 1.94391 0 2.3922V12.6031C0 13.7306 0.892081 14.6226 2.01956 14.6226H16.9805C18.108 14.6226 19 13.7306 19 12.6031V2.39669C19 1.93033 18.846 1.50924 18.5925 1.16959ZM2.01953 1.56352H16.8627L10.152 6.84781L9.49998 7.38213L1.94707 1.56805C1.96974 1.56352 1.9969 1.56352 2.01953 1.56352ZM1.19089 12.6575C1.19089 12.6393 1.19089 12.6212 1.19089 12.6031V2.48276L7.39895 7.27807L1.19089 12.6575ZM2.09198 13.4408L8.34987 8.01607L9.14226 8.63186C9.25998 8.69071 9.3777 8.74958 9.49998 8.74958C9.6177 8.74958 9.73542 8.74958 9.85771 8.57299L10.5777 8.00698L16.7857 13.4408H2.09198ZM17.8091 12.6076C17.8091 12.662 17.8046 12.7118 17.7955 12.757L11.515 7.26442L17.8046 2.32879C17.8091 2.35142 17.8091 2.37406 17.8091 2.39669V12.6076Z" fill="#323B47"/>
</svg>
