<svg width="15" height="21" viewBox="0 0 15 21" fill="none" xmlns="http://www.w3.org/2000/svg">
<path d="M7.3218 0.645996C3.54844 0.645996 0.478516 3.71592 0.478516 7.48928C0.478516 12.232 7.32852 20.3335 7.32852 20.3335C7.32852 20.3335 14.1651 11.9988 14.1651 7.48928C14.1651 3.71592 11.0953 0.645996 7.3218 0.645996ZM9.38656 9.49299C8.81722 10.0622 8.06957 10.3469 7.3218 10.3469C6.57414 10.3469 5.82625 10.0622 5.25716 9.49299C4.11861 8.35457 4.11861 6.50214 5.25716 5.36359C5.80846 4.81205 6.54182 4.50827 7.3218 4.50827C8.10177 4.50827 8.83501 4.81217 9.38656 5.36359C10.5251 6.50214 10.5251 8.35457 9.38656 9.49299Z" fill="#323B47"/>
</svg>
