<svg width="13" height="19" viewBox="0 0 13 19" fill="none" xmlns="http://www.w3.org/2000/svg">
<path d="M4.6708 9.50402L11.7787 2.39585C11.9744 2.2006 12.082 1.93954 12.082 1.66119C12.082 1.38267 11.9744 1.12177 11.7787 0.926211L11.1558 0.303691C10.9604 0.107821 10.6992 0 10.4209 0C10.1425 0 9.88159 0.107821 9.68603 0.303691L1.223 8.76657C1.02667 8.96275 0.919154 9.22488 0.919926 9.50355C0.919154 9.78345 1.02651 10.0453 1.223 10.2416L9.67815 18.6963C9.87372 18.8922 10.1346 19 10.4131 19C10.6915 19 10.9524 18.8922 11.1481 18.6963L11.7708 18.0738C12.176 17.6686 12.176 17.009 11.7708 16.604L4.6708 9.50402Z" fill="white"/>
</svg>
