<svg width="28" height="28" viewBox="0 0 28 28" fill="none" xmlns="http://www.w3.org/2000/svg">
<g clip-path="url(#clip0)">
<path d="M27.9722 8.23208C27.9066 6.74433 27.6661 5.72152 27.3214 4.83523C26.9659 3.89447 26.4189 3.0522 25.7023 2.35202C25.0021 1.64095 24.1543 1.08841 23.2244 0.738425C22.333 0.393784 21.3155 0.153198 19.8278 0.0876025C18.3289 0.0164522 17.8531 0 14.0516 0C10.25 0 9.7742 0.0164522 8.2809 0.0820473C6.79315 0.147642 5.77034 0.388443 4.88427 0.73287C3.94329 1.08841 3.10103 1.63539 2.40085 2.35202C1.68977 3.0522 1.13745 3.90002 0.787253 4.82989C0.442612 5.72152 0.202026 6.73877 0.136431 8.22652C0.0652803 9.72538 0.0488281 10.2012 0.0488281 14.0027C0.0488281 17.8043 0.0652803 18.2801 0.130875 19.7734C0.19647 21.2611 0.43727 22.284 0.781911 23.1702C1.13745 24.111 1.68977 24.9533 2.40085 25.6534C3.10103 26.3645 3.94885 26.9171 4.87872 27.267C5.77034 27.6117 6.7876 27.8523 8.27556 27.9179C9.76865 27.9837 10.2447 27.9999 14.0462 27.9999C17.8477 27.9999 18.3236 27.9837 19.8169 27.9179C21.3046 27.8523 22.3274 27.6117 23.2135 27.267C25.0952 26.5395 26.583 25.0518 27.3105 23.1702C27.6549 22.2786 27.8957 21.2611 27.9613 19.7734C28.0269 18.2801 28.0434 17.8043 28.0434 14.0027C28.0434 10.2012 28.0378 9.72538 27.9722 8.23208ZM25.4508 19.664C25.3905 21.0315 25.1608 21.7699 24.9694 22.2622C24.4989 23.482 23.5308 24.4501 22.311 24.9206C21.8187 25.112 21.0749 25.3417 19.7128 25.4017C18.236 25.4676 17.793 25.4838 14.0571 25.4838C10.3212 25.4838 9.8727 25.4676 8.40119 25.4017C7.03374 25.3417 6.29531 25.112 5.80303 24.9206C5.19601 24.6962 4.64347 24.3407 4.19499 23.8758C3.73006 23.4217 3.37452 22.8747 3.15017 22.2677C2.95873 21.7754 2.72904 21.0315 2.669 19.6696C2.60319 18.1927 2.58695 17.7496 2.58695 14.0136C2.58695 10.2777 2.60319 9.82922 2.669 8.35792C2.72904 6.99047 2.95873 6.25204 3.15017 5.75976C3.37452 5.15253 3.73006 4.6002 4.20055 4.15151C4.65437 3.68657 5.20135 3.33103 5.80859 3.1069C6.30087 2.91546 7.04485 2.68577 8.40675 2.62551C9.8836 2.55992 10.3267 2.54347 14.0625 2.54347C17.8039 2.54347 18.2469 2.55992 19.7184 2.62551C21.0858 2.68577 21.8242 2.91546 22.3165 3.1069C22.9236 3.33103 23.4761 3.68657 23.9246 4.15151C24.3895 4.60554 24.745 5.15253 24.9694 5.75976C25.1608 6.25204 25.3905 6.99581 25.4508 8.35792C25.5164 9.83478 25.5328 10.2777 25.5328 14.0136C25.5328 17.7496 25.5164 18.1871 25.4508 19.664Z" fill="#323B47"/>
<path d="M14.0522 6.80981C10.0812 6.80981 6.85938 10.0315 6.85938 14.0026C6.85938 17.9738 10.0812 21.1954 14.0522 21.1954C18.0234 21.1954 21.245 17.9738 21.245 14.0026C21.245 10.0315 18.0234 6.80981 14.0522 6.80981ZM14.0522 18.6684C11.476 18.6684 9.38639 16.579 9.38639 14.0026C9.38639 11.4263 11.476 9.33683 14.0522 9.33683C16.6286 9.33683 18.718 11.4263 18.718 14.0026C18.718 16.579 16.6286 18.6684 14.0522 18.6684Z" fill="#323B47"/>
<path d="M23.2082 6.52563C23.2082 7.45294 22.4563 8.20482 21.5288 8.20482C20.6015 8.20482 19.8496 7.45294 19.8496 6.52563C19.8496 5.59811 20.6015 4.84644 21.5288 4.84644C22.4563 4.84644 23.2082 5.59811 23.2082 6.52563Z" fill="#323B47"/>
</g>
<defs>
<clipPath id="clip0">
<rect width="28" height="28" fill="white"/>
</clipPath>
</defs>
</svg>
