<svg width="26" height="21" viewBox="0 0 26 21" fill="none" xmlns="http://www.w3.org/2000/svg">
<path d="M21.6627 6.76291C20.461 1.97588 15.6063 -0.93062 10.8193 0.271038C7.07834 1.21013 4.36199 4.44338 4.08212 8.29019C1.42589 8.72824 -0.372332 11.2366 0.0657104 13.8928C0.455109 16.2543 2.50127 17.9836 4.89453 17.9741H8.95659V16.3493H4.89453C3.09981 16.3493 1.64489 14.8944 1.64489 13.0997C1.64489 11.305 3.09981 9.85002 4.89453 9.85002C5.34323 9.85002 5.70694 9.48632 5.70694 9.03761C5.70288 4.99947 8.97319 1.72261 13.0113 1.7186C16.5069 1.7151 19.5161 4.18635 20.1922 7.61589C20.259 7.95832 20.5369 8.21992 20.8828 8.26582C23.1038 8.5821 24.6478 10.639 24.3316 12.86C24.0476 14.8543 22.3448 16.3393 20.3303 16.3493H17.0807V17.9741H20.3303C23.4711 17.9646 26.0095 15.4108 26 12.27C25.992 9.6556 24.2025 7.38334 21.6627 6.76291Z" fill="#323B47"/>
<path d="M12.4411 10.0856L9.19141 13.3353L10.3369 14.4808L12.2055 12.6203V20.4114H13.8303V12.6203L15.6907 14.4808L16.8362 13.3353L13.5866 10.0856C13.2697 9.77061 12.7579 9.77061 12.4411 10.0856Z" fill="#323B47"/>
</svg>
