<svg width="50" height="50" viewBox="0 0 50 50" fill="none" xmlns="http://www.w3.org/2000/svg">
<g clip-path="url(#clip0)">
<path d="M32.5054 8.36452C28.1975 8.35923 24.0417 9.95755 20.8475 12.848C17.1654 8.13073 10.5099 6.96705 5.44612 10.156C0.38199 13.3445 -1.44525 19.8492 1.21754 25.2085C3.88033 30.5674 10.1683 33.0399 15.7679 30.9301C16.0042 31.7055 16.2961 32.4626 16.6409 33.196C13.2353 35.438 11.7231 39.6617 12.9315 43.5557C14.1399 47.4492 17.7777 50.075 21.8538 49.9953C25.9304 49.9156 29.4624 47.15 30.518 43.2117C36.9617 43.9541 43.2866 41.0677 46.9484 35.7137C50.6098 30.3596 51.0058 23.4183 47.9767 17.6824C44.9476 11.9466 38.9918 8.35964 32.5054 8.36452ZM1.69529 20.0224C1.68838 15.7247 4.43492 11.906 8.51144 10.5451C12.588 9.18421 17.078 10.5874 19.6542 14.0272C16.6698 17.2409 15.0137 21.4658 15.0186 25.8513C15.021 27.0097 15.1381 28.1644 15.3674 29.2997C12.2928 30.532 8.80622 30.1559 6.06496 28.2958C3.3237 26.436 1.68634 23.3353 1.69529 20.0224ZM21.6802 48.3344C17.5411 48.3344 14.1859 44.9792 14.1859 40.84C14.1859 36.7013 17.5411 33.3457 21.6802 33.3457C25.8194 33.3457 29.1746 36.7013 29.1746 40.84C29.1701 44.9771 25.8173 48.3299 21.6802 48.3344ZM32.5054 41.6727C31.9366 41.6687 31.3686 41.6341 30.8034 41.5686C30.8225 41.3279 30.84 41.086 30.84 40.84C30.84 37.769 29.3002 34.9021 26.7403 33.2054C24.18 31.5087 20.9398 31.2082 18.1111 32.4048C17.6972 31.5062 17.3703 30.5703 17.1353 29.6095C16.8361 28.3791 16.6844 27.1175 16.684 25.8513C16.684 17.1136 23.7677 10.0299 32.5054 10.0299C41.2435 10.0299 48.3268 17.1136 48.3268 25.8513C48.3268 34.5894 41.2435 41.6727 32.5054 41.6727Z" fill="#ffffff"/>
<path d="M7.52455 37.5092C7.52455 37.0494 7.1517 36.6765 6.69185 36.6765C6.23199 36.6765 5.85914 37.0494 5.85914 37.5092C5.85914 38.8892 4.7406 40.0073 3.36103 40.0073C2.90117 40.0073 2.52832 40.3802 2.52832 40.84C2.52832 41.2999 2.90117 41.6727 3.36103 41.6727C4.7406 41.6727 5.85914 42.7913 5.85914 44.1709C5.85914 44.6307 6.23199 45.0036 6.69185 45.0036C7.1517 45.0036 7.52455 44.6307 7.52455 44.1709C7.52455 42.7913 8.64309 41.6727 10.0227 41.6727C10.4825 41.6727 10.8554 41.2999 10.8554 40.84C10.8554 40.3802 10.4825 40.0073 10.0227 40.0073C8.64309 40.0073 7.52455 38.8892 7.52455 37.5092ZM6.69185 41.6988C6.44952 41.3719 6.16002 41.0828 5.83353 40.84C6.16002 40.5977 6.44952 40.3082 6.69185 39.9817C6.93458 40.3082 7.22367 40.5977 7.55057 40.84C7.22367 41.0828 6.93458 41.3719 6.69185 41.6988Z" fill="#ffffff"/>
<path d="M40.8325 7.53194C40.8325 7.9918 41.2054 8.36465 41.6652 8.36465C42.1251 8.36465 42.4979 7.9918 42.4979 7.53194C42.4979 6.15237 43.6165 5.03383 44.996 5.03383C45.4559 5.03383 45.8288 4.66098 45.8288 4.20112C45.8288 3.74126 45.4559 3.36842 44.996 3.36842C43.6165 3.36842 42.4979 2.25028 42.4979 0.870303C42.4979 0.410445 42.1251 0.0375977 41.6652 0.0375977C41.2054 0.0375977 40.8325 0.410445 40.8325 0.870303C40.8325 2.25028 39.714 3.36842 38.3344 3.36842C37.8746 3.36842 37.5017 3.74126 37.5017 4.20112C37.5017 4.66098 37.8746 5.03383 38.3344 5.03383C39.714 5.03383 40.8325 6.15237 40.8325 7.53194ZM41.6652 3.3428C41.908 3.6693 42.1971 3.95879 42.524 4.20112C42.1971 4.44386 41.908 4.73295 41.6652 5.05985C41.4229 4.73295 41.1334 4.44386 40.8069 4.20112C41.1334 3.95879 41.4229 3.6693 41.6652 3.3428Z" fill="#ffffff"/>
<path d="M43.3308 25.8513C41.9512 25.8513 40.8327 24.7332 40.8327 23.3532C40.8327 22.8934 40.4598 22.5205 39.9999 22.5205C39.5401 22.5205 39.1672 22.8934 39.1672 23.3532C39.1672 24.7332 38.0487 25.8513 36.6691 25.8513C36.2093 25.8513 35.8364 26.2242 35.8364 26.684C35.8364 27.1439 36.2093 27.5167 36.6691 27.5167C38.0487 27.5167 39.1672 28.6353 39.1672 30.0148C39.1672 30.4747 39.5401 30.8476 39.9999 30.8476C40.4598 30.8476 40.8327 30.4747 40.8327 30.0148C40.8327 28.6353 41.9512 27.5167 43.3308 27.5167C43.7906 27.5167 44.1635 27.1439 44.1635 26.684C44.1635 26.2242 43.7906 25.8513 43.3308 25.8513ZM39.9999 27.5428C39.7576 27.2159 39.4681 26.9268 39.1416 26.684C39.4681 26.4417 39.7576 26.1522 39.9999 25.8257C40.2427 26.1522 40.5318 26.4417 40.8587 26.684C40.5318 26.9268 40.2427 27.2159 39.9999 27.5428Z" fill="#ffffff"/>
<path d="M34.1708 19.1896C34.1708 18.7298 33.798 18.3569 33.3381 18.3569C31.9585 18.3569 30.84 17.2388 30.84 15.8588C30.84 15.399 30.4671 15.0261 30.0073 15.0261C29.5474 15.0261 29.1746 15.399 29.1746 15.8588C29.1746 17.2388 28.056 18.3569 26.6765 18.3569C26.2166 18.3569 25.8438 18.7298 25.8438 19.1896C25.8438 19.6495 26.2166 20.0223 26.6765 20.0223C28.056 20.0223 29.1746 21.1409 29.1746 22.5205C29.1746 22.9803 29.5474 23.3532 30.0073 23.3532C30.4671 23.3532 30.84 22.9803 30.84 22.5205C30.84 21.1409 31.9585 20.0223 33.3381 20.0223C33.798 20.0223 34.1708 19.6495 34.1708 19.1896ZM30.0073 20.0484C29.7649 19.7215 29.4754 19.4324 29.149 19.1896C29.4754 18.9473 29.7649 18.6578 30.0073 18.3313C30.25 18.6578 30.5391 18.9473 30.866 19.1896C30.5391 19.4324 30.25 19.7215 30.0073 20.0484Z" fill="#ffffff"/>
<path d="M10.0227 34.1785H11.6881V35.8439H10.0227V34.1785Z" fill="#ffffff"/>
<path d="M1.69556 45.8364H3.36097V47.5018H1.69556V45.8364Z" fill="#ffffff"/>
<path d="M49.1596 43.3382C49.1596 41.9586 48.041 40.8401 46.6614 40.8401C45.2819 40.8401 44.1633 41.9586 44.1633 43.3382C44.1633 44.7182 45.2819 45.8363 46.6614 45.8363C48.041 45.8363 49.1596 44.7182 49.1596 43.3382ZM45.8287 43.3382C45.8287 42.8783 46.2016 42.5055 46.6614 42.5055C47.1213 42.5055 47.4942 42.8783 47.4942 43.3382C47.4942 43.7981 47.1213 44.1709 46.6614 44.1709C46.2016 44.1709 45.8287 43.7981 45.8287 43.3382Z" fill="#ffffff"/>
<path d="M25.0112 5.86646C25.0112 4.02703 23.5199 2.53564 21.6804 2.53564C19.841 2.53564 18.3496 4.02703 18.3496 5.86646C18.3496 7.7063 19.841 9.19728 21.6804 9.19728C23.5199 9.19728 25.0112 7.7063 25.0112 5.86646ZM20.015 5.86646C20.015 4.94675 20.7607 4.20105 21.6804 4.20105C22.6001 4.20105 23.3458 4.94675 23.3458 5.86646C23.3458 6.78659 22.6001 7.53187 21.6804 7.53187C20.7607 7.53187 20.015 6.78659 20.015 5.86646Z" fill="#ffffff"/>
<path d="M30.0073 4.20117H31.6728V5.86658H30.0073V4.20117Z" fill="#ffffff"/>
<path d="M33.3381 35.0112H35.0035V36.6767H33.3381V35.0112Z" fill="#ffffff"/>
<path d="M38.3347 45.8364H40.0001V47.5018H38.3347V45.8364Z" fill="#ffffff"/>
<path d="M10.0227 21.688H11.6881V23.3534H10.0227V21.688Z" fill="#ffffff"/>
<path d="M3.36077 21.7631L5.02618 21.6131C5.02212 21.5732 4.69318 17.6102 6.88717 15.2011C8.14598 13.9228 9.89678 13.2515 11.6878 13.3609V11.6954C9.42594 11.5759 7.22383 12.4464 5.65478 14.0805C2.96678 17.0251 3.34654 21.5716 3.36077 21.7631Z" fill="#ffffff"/>
<path d="M33.3381 11.6953V13.3607C33.7545 13.3607 43.4599 13.5384 45.0053 25.1288L46.6557 24.9088C44.9126 11.847 33.454 11.6953 33.3381 11.6953Z" fill="#ffffff"/>
</g>
<defs>
<clipPath id="clip0">
<rect width="50" height="50" fill="white"/>
</clipPath>
</defs>
</svg>
