<svg width="18" height="18" viewBox="0 0 18 18" fill="#ffffff" xmlns="http://www.w3.org/2000/svg">
<path d="M13.1304 10.7304L13.1236 10.7866C11.4744 9.96463 11.3019 9.85513 11.0889 10.1746C10.9411 10.3959 10.5106 10.8976 10.3809 11.0461C10.2496 11.1924 10.1191 11.2036 9.89635 11.1024C9.67135 10.9899 8.9491 10.7536 8.0941 9.98863C7.4281 9.39238 6.9811 8.66113 6.8491 8.43613C6.62935 8.05663 7.0891 8.00263 7.5076 7.21063C7.5826 7.05313 7.54435 6.92938 7.48885 6.81763C7.4326 6.70513 6.98485 5.60263 6.79735 5.16313C6.61735 4.72513 6.4321 4.78063 6.29335 4.78063C5.86135 4.74313 5.5456 4.74913 5.26735 5.03863C4.05685 6.36913 4.3621 7.74163 5.39785 9.20113C7.43335 11.8651 8.51785 12.3556 10.5009 13.0366C11.0364 13.2069 11.5246 13.1829 11.9109 13.1274C12.3414 13.0591 13.2361 12.5866 13.4229 12.0579C13.6141 11.5291 13.6141 11.0904 13.5579 10.9891C13.5024 10.8879 13.3554 10.8316 13.1304 10.7304Z"/>
<path d="M15.39 2.58634C9.62325 -2.98841 0.0795 1.05484 0.07575 8.91934C0.07575 10.4913 0.4875 12.0243 1.272 13.3781L0 17.9996L4.75125 16.7606C10.68 19.9631 17.997 15.7106 18 8.92384C18 6.54184 17.07 4.30009 15.3787 2.61559L15.39 2.58634ZM16.5015 8.89909C16.497 14.6238 10.2127 18.1991 5.2425 15.2771L4.9725 15.1166L2.16 15.8478L2.91375 13.1141L2.7345 12.8328C-0.3585 7.90909 3.195 1.47409 9.054 1.47409C11.0445 1.47409 12.9128 2.25034 14.3197 3.65659C15.726 5.05084 16.5015 6.91909 16.5015 8.89909Z"/>
</svg>
