<svg width="19" height="19" viewBox="0 0 19 19" fill="#000000" xmlns="http://www.w3.org/2000/svg">
<path d="M1.11486 14.3C2.60045 14.3 16.3992 14.3 17.8854 14.3C19.3715 14.3 19.3715 16.7 17.8854 16.7C16.3992 16.7 2.60225 16.7 1.11486 16.7C-0.372523 16.7 -0.37072 14.3 1.11486 14.3Z"/>
<path d="M1.11486 8.30005C2.60045 8.30005 16.3992 8.30005 17.8854 8.30005C19.3715 8.30005 19.3715 10.7 17.8854 10.7C16.3992 10.7 2.60225 10.7 1.11486 10.7C-0.372523 10.7 -0.37072 8.30005 1.11486 8.30005Z"/>
<path d="M1.11486 2.30005C2.60045 2.30005 16.3992 2.30005 17.8854 2.30005C19.3715 2.30005 19.3715 4.70005 17.8854 4.70005C16.3992 4.70005 2.60225 4.70005 1.11486 4.70005C-0.372523 4.70005 -0.37072 2.30005 1.11486 2.30005Z"/>
</svg>
