<svg width="18" height="18" viewBox="0 0 18 18" fill="none" xmlns="http://www.w3.org/2000/svg">
<path fill-rule="evenodd" clip-rule="evenodd" d="M14 8.41667C14 11.6383 11.3883 14.25 8.16667 14.25C4.945 14.25 2.33333 11.6383 2.33333 8.41667C2.33333 5.19501 4.945 2.58333 8.16667 2.58333C11.3883 2.58333 14 5.19501 14 8.41667ZM0 8.41667C0 12.927 3.65634 16.5833 8.16667 16.5833C10.0011 16.5833 11.6942 15.9785 13.0575 14.9574L15.5084 17.4083C15.964 17.8639 16.7027 17.8639 17.1583 17.4083C17.6139 16.9527 17.6139 16.214 17.1583 15.7584L14.7074 13.3075C15.7285 11.9442 16.3333 10.2511 16.3333 8.41667C16.3333 3.90634 12.677 0.25 8.16667 0.25C3.65634 0.25 0 3.90634 0 8.41667Z" fill="#222B45"/>
</svg>
