<svg width="60" height="47" viewBox="0 0 60 47" fill="none" xmlns="http://www.w3.org/2000/svg">
<path d="M37.2759 18.8112L37.6507 17.0101H34.0327L34.357 15.4899H37.9822L38.357 13.6887H32.9372L31.1426 22.1542H36.5624L36.9444 20.353H33.3264L33.6507 18.8112H37.2759Z" fill="white"/>
<path d="M27.8628 22.1542L27.6322 19.8847H23.6394L22.4358 22.1542H20.1367L26.9043 10.2449H28.4971L30.2052 22.1542H27.8628ZM24.6484 18.0115H27.4448L26.8827 14.0129L24.6484 18.0115Z" fill="white"/>
<path d="M52.1373 14.8705C51.8181 14.4545 51.4029 14.1219 50.9273 13.9011C50.4516 13.6803 49.9296 13.5779 49.4057 13.6025C48.195 13.6138 47.0297 14.0644 46.1264 14.8705C45.1568 15.6371 44.4841 16.7171 44.2237 17.9252C44.0855 18.4446 44.0682 18.9887 44.1731 19.5157C44.2781 20.0428 44.5025 20.5388 44.8292 20.9656C45.1483 21.3839 45.5642 21.7185 46.0413 21.9406C46.5183 22.1628 47.0422 22.2658 47.5679 22.2408C48.7752 22.2273 49.9361 21.7739 50.8328 20.9656C51.802 20.206 52.473 19.1297 52.7283 17.9252C52.8703 17.4048 52.8908 16.8587 52.7884 16.3291C52.6859 15.7995 52.4631 15.3004 52.1373 14.8705ZM50.8976 17.9252C50.7465 18.6128 50.3682 19.2295 49.8237 19.676C49.3114 20.133 48.6509 20.3889 47.9643 20.3964C47.666 20.4101 47.3688 20.3518 47.0978 20.2264C46.8269 20.101 46.5901 19.9122 46.4075 19.676C46.2228 19.4285 46.097 19.1422 46.0395 18.8389C45.9821 18.5355 45.9946 18.2231 46.076 17.9252C46.2239 17.2364 46.6028 16.6187 47.1499 16.1745C47.6661 15.7193 48.3282 15.4637 49.0165 15.4541C49.3128 15.4403 49.6079 15.4987 49.8766 15.6242C50.1453 15.7497 50.3794 15.9385 50.5589 16.1745C50.7429 16.4223 50.8689 16.7083 50.9275 17.0114C50.9861 17.3144 50.9759 17.6267 50.8976 17.9252Z" fill="white"/>
<path d="M43.7759 14.4092C43.5964 14.1732 43.3622 13.9843 43.0936 13.8588C42.8249 13.7333 42.5297 13.675 42.2335 13.6887H39.3506L37.5488 22.1542H39.3578L39.9993 19.1211L41.0804 22.1542H43.2425L41.9236 18.6311C42.4865 18.4715 42.9908 18.1514 43.3748 17.71C43.7587 17.2686 44.0058 16.725 44.0858 16.1455C44.1591 15.8506 44.1694 15.5435 44.116 15.2443C44.0626 14.9451 43.9467 14.6606 43.7759 14.4092ZM42.3344 16.2392C42.3059 16.4659 42.2105 16.6791 42.0605 16.8516C42.0034 16.9154 41.9334 16.9664 41.8552 17.0012C41.7769 17.0359 41.6921 17.0537 41.6065 17.0533H40.4317L40.756 15.5187H41.8443C42.2407 15.4899 42.3921 15.7349 42.3128 16.2104L42.3344 16.2392Z" fill="white"/>
<path d="M13.8098 33.1772L14.8404 28.3573H11.9071L10.8837 33.1772H8.5918L11.1215 21.2751H13.4134L12.39 26.059H15.3233L16.3395 21.2751H18.6314L16.1017 33.1772H13.8098Z" fill="white"/>
<path d="M23.4166 24.6325C22.2154 24.6603 21.0652 25.1238 20.1806 25.9366C19.2127 26.7018 18.5403 27.7788 18.2779 28.9841C18.1401 29.5047 18.123 30.0498 18.2279 30.5779C18.3328 31.1061 18.557 31.6033 18.8833 32.0317C19.2074 32.4416 19.6255 32.7676 20.1021 32.982C20.5788 33.1965 21.1001 33.2931 21.622 33.2637C22.8279 33.2495 23.9877 32.799 24.8869 31.9957C25.8552 31.2321 26.5258 30.154 26.7824 28.9481C26.9125 28.431 26.9231 27.891 26.8132 27.3691C26.7033 26.8473 26.4758 26.3574 26.1481 25.9366C25.8341 25.5126 25.4209 25.1721 24.9447 24.9447C24.4685 24.7174 23.9438 24.6102 23.4166 24.6325ZM24.9085 28.9553C24.7576 29.6447 24.3763 30.2622 23.8274 30.7061C23.318 31.1631 22.6596 31.4192 21.9752 31.4265C21.6768 31.4408 21.3794 31.3828 21.1083 31.2573C20.8372 31.1319 20.6005 30.9427 20.4184 30.7061C20.2337 30.4586 20.1078 30.1723 20.0504 29.869C19.993 29.5656 20.0054 29.2531 20.0869 28.9553C20.2347 28.2664 20.6136 27.6488 21.1607 27.2046C21.677 26.7494 22.3391 26.4938 23.0274 26.4841C23.3236 26.4704 23.6188 26.5287 23.8875 26.6542C24.1561 26.7797 24.3903 26.9686 24.5698 27.2046C24.7527 27.4516 24.8781 27.7363 24.9367 28.038C24.9953 28.3397 24.9857 28.6506 24.9085 28.9481V28.9553Z" fill="white"/>
<path d="M37.7436 28.098C37.4254 28.0286 37.121 27.9069 36.8427 27.7377C36.7895 27.6794 36.7533 27.6076 36.7381 27.5301C36.7228 27.4526 36.7291 27.3724 36.7562 27.2983C36.809 27.0718 36.9454 26.8737 37.1382 26.7435C37.35 26.5973 37.6015 26.5193 37.8589 26.5202C38.0823 26.5114 38.3001 26.5918 38.4643 26.7435C38.5372 26.8138 38.5897 26.9024 38.6163 27.0001C38.643 27.0977 38.6427 27.2007 38.6157 27.2983H40.4607C40.5438 26.9792 40.5499 26.6449 40.4784 26.323C40.407 26.0011 40.2601 25.7007 40.0499 25.4467C39.8272 25.1906 39.5495 24.9882 39.2374 24.8547C38.9254 24.7212 38.5872 24.66 38.2481 24.6758C37.4741 24.6815 36.7258 24.9538 36.1292 25.4467C35.5202 25.8996 35.0954 26.5571 34.9328 27.2983C34.8293 27.6289 34.821 27.982 34.909 28.3171C34.9969 28.6522 35.1775 28.9558 35.4301 29.1931C35.8589 29.5154 36.3496 29.7459 36.8715 29.8703C37.1967 29.9426 37.5082 30.0666 37.794 30.2378C37.8465 30.3009 37.8815 30.3768 37.8954 30.4577C37.9093 30.5386 37.9017 30.6218 37.8733 30.6989C37.8479 30.8113 37.8004 30.9176 37.7336 31.0116C37.6668 31.1056 37.582 31.1854 37.4841 31.2464C37.2759 31.4006 37.0225 31.4817 36.7634 31.477C36.6521 31.4816 36.5411 31.4635 36.437 31.4239C36.3329 31.3842 36.238 31.3239 36.158 31.2464C36.0857 31.1771 36.033 31.09 36.0052 30.9939C35.9774 30.8978 35.9754 30.796 35.9994 30.6989H34.1904C34.1076 31.014 34.101 31.3444 34.1712 31.6626C34.2414 31.9808 34.3863 32.2777 34.594 32.5288C34.8149 32.7852 35.0913 32.9879 35.4023 33.1215C35.7132 33.255 36.0506 33.316 36.3886 33.2997C37.1628 33.2951 37.9115 33.0228 38.5076 32.5288C39.1146 32.0773 39.5392 31.4227 39.7039 30.6845C39.8101 30.3506 39.8198 29.9936 39.7318 29.6545C39.6438 29.3155 39.4618 29.0082 39.2067 28.768C38.768 28.4503 38.2708 28.2225 37.7436 28.098Z" fill="white"/>
<path d="M32.6052 24.7192L31.4016 30.3605C31.3322 30.6489 31.1639 30.9038 30.9259 31.0809C30.7005 31.2842 30.4079 31.397 30.1043 31.398C29.9672 31.4103 29.8291 31.3877 29.7031 31.3323C29.577 31.2769 29.4671 31.1904 29.3836 31.0809C29.3082 30.9787 29.2556 30.8615 29.2295 30.7372C29.2034 30.6129 29.2043 30.4844 29.2322 30.3605L30.4286 24.7192H28.6268L27.4232 30.3605C27.3308 30.7149 27.323 31.0861 27.4007 31.444C27.4783 31.802 27.6391 32.1367 27.8701 32.421C28.0896 32.6985 28.3721 32.9198 28.6942 33.0664C29.0164 33.213 29.3688 33.2807 29.7223 33.264C30.5363 33.2531 31.3202 32.9545 31.9349 32.421C32.5812 31.9075 33.0316 31.1877 33.2106 30.3821L34.407 24.7409L32.6052 24.7192Z" fill="white"/>
<path d="M47.0994 26.5131L47.4814 24.7119H42.0616L40.2598 33.1774H45.6796L46.0616 31.3762H42.4435L42.7751 29.8344H46.3931L46.7679 28.0333H43.1499L43.4814 26.5131H47.0994Z" fill="white"/>
<path d="M45.182 38.2207C44.1291 38.9893 43.0343 39.6988 41.9027 40.3461C40.5359 41.1191 39.1203 41.8026 37.6649 42.3922C36.8937 42.7164 36.0793 42.9758 35.2577 43.2784L33.9892 43.6746C33.5568 43.8043 33.1243 43.9052 32.6847 44.0277C29.0263 44.971 25.2377 45.3069 21.4703 45.0219C19.5813 44.8805 17.712 44.5449 15.8919 44.0205C14.1474 43.5255 12.4682 42.8241 10.8901 41.9311C9.44203 41.11 8.11522 40.0916 6.94775 38.9052C5.93145 37.834 5.07682 36.6205 4.41081 35.3028C4.12888 34.7299 3.88803 34.1376 3.69009 33.5305L3.6036 33.4512L3.53874 33.2207C3.53874 33.0622 3.45946 32.9037 3.42342 32.7524C3.34414 32.4426 3.26486 32.1472 3.18559 31.859C3.15009 31.7268 3.12598 31.5918 3.11351 31.4555C3.11351 31.3331 3.11351 31.2106 3.11351 31.0953L3.02703 30.3748L2.98378 30.0506V29.7192C2.98378 29.5103 2.98378 29.3014 2.98378 29.1068V29.0348L0 28.3503C0 28.6097 0 28.8763 0.036036 29.1789C0.0720721 29.4815 0.036036 29.6616 0.0720721 29.8993C0.0720721 30.0218 0.0720721 30.1587 0.0720721 30.2884C0.0720721 30.4181 0.122523 30.5766 0.144144 30.7207C0.194595 31.0089 0.252252 31.3115 0.302703 31.6213C0.302703 31.7798 0.367568 31.9383 0.396396 32.0968C0.418089 32.2535 0.45428 32.4078 0.504505 32.5579C0.590991 32.846 0.684685 33.1414 0.778378 33.444C0.828829 33.5953 0.872072 33.7466 0.922522 33.9051L0.994595 34.1357L1.03063 34.251V34.3158L1.08108 34.4383C1.3909 35.169 1.75217 35.8768 2.16216 36.5564C3.01467 38.0352 4.08081 39.3802 5.32613 40.5478C6.69986 41.8208 8.24521 42.8951 9.91712 43.7395C11.6755 44.6275 13.5337 45.3023 15.4523 45.7496C17.4076 46.2089 19.4047 46.4672 21.4126 46.5205C25.3178 46.6256 29.2137 46.0877 32.9441 44.9282C33.3838 44.7841 33.8378 44.6545 34.2631 44.5032L35.5315 44.0421C36.3532 43.689 37.1748 43.3792 37.9387 43.0118C39.386 42.3396 40.7894 41.5768 42.1405 40.7279C43.2698 40.0087 44.3596 39.2295 45.4054 38.3936L45.5063 38.3L45.182 38.2207Z" fill="white"/>
<path d="M59.9935 17.6514C59.9935 17.3199 59.9503 16.9741 59.9286 16.6211C59.907 16.2681 59.835 15.9006 59.7917 15.526C59.7917 15.3387 59.7341 15.1513 59.698 14.9568L59.5611 14.3588C59.4771 13.9618 59.3712 13.5698 59.244 13.1845L59.0566 12.6297L58.9629 12.3487V12.2767V12.2407V12.1686L58.9052 12.0173C58.2083 10.2771 57.2186 8.66884 55.9791 7.26224C55.3178 6.50468 54.5946 5.80341 53.8169 5.16569C52.9825 4.50093 52.0982 3.90118 51.1719 3.37173C49.2963 2.29871 47.284 1.4844 45.1899 0.950967C43.0697 0.397686 40.8937 0.0859039 38.7034 0.0215666C36.5333 -0.0500931 34.3614 0.0850036 32.2169 0.425027C30.1424 0.754366 28.0983 1.25316 26.1052 1.91639L24.6638 2.41351L23.2872 2.98988C22.8404 3.1772 22.3935 3.35732 21.9611 3.55905C21.5286 3.76078 21.1106 3.98413 20.6998 4.19306C20.289 4.402 19.8638 4.59652 19.4746 4.82707L18.3359 5.54754C17.9611 5.77808 17.6151 5.98702 17.2404 6.22477L16.2241 6.94524L15.2584 7.62968L14.3791 8.35015C13.8266 8.77516 13.2996 9.23225 12.8007 9.71903L12.1953 10.2954L12.4908 10.3602L12.9881 9.92796C13.5039 9.47009 14.0453 9.04192 14.6097 8.64554L15.4962 7.92507L16.4836 7.29827L17.5142 6.63544C17.8674 6.4193 18.235 6.23198 18.6241 6.02304L19.7773 5.40344C20.1665 5.19451 20.5845 5.0288 20.9953 4.83427L22.2638 4.26511C22.6962 4.08499 23.1431 3.93369 23.5899 3.76799L24.9449 3.27086L26.3863 2.83138C30.3624 1.68323 34.5107 1.24903 38.6386 1.54895C40.6905 1.70464 42.7187 2.08887 44.6854 2.69449C46.579 3.26788 48.3854 4.09686 50.0548 5.15848C50.839 5.66022 51.5835 6.22143 52.2818 6.83717C52.9419 7.42186 53.5496 8.06311 54.098 8.75361C55.1009 9.9933 55.8812 11.3974 56.4043 12.9035L56.4476 13.0332V13.098L56.5268 13.3646L56.6782 13.9265C56.7802 14.2561 56.8549 14.5934 56.9016 14.9352L56.9881 15.3963C56.9881 15.5476 57.0241 15.7133 57.0386 15.8718C57.0386 16.1816 57.1178 16.4842 57.1178 16.7868C57.1178 17.0894 57.1178 17.3704 57.1178 17.6441C57.1178 17.9179 57.1178 18.1917 57.0746 18.4511C57.0531 18.9343 57.0002 19.4156 56.916 19.892C56.916 20.0865 56.8512 20.2666 56.8151 20.4396L59.698 21.1024C59.7413 20.8502 59.7773 20.5836 59.8133 20.2955C59.8806 19.7383 59.9191 19.1779 59.9286 18.6168C59.9935 18.2998 60.0079 18.0116 59.9935 17.6514Z" fill="white"/>
</svg>
