<svg width="19" height="19" fill="none" xmlns="http://www.w3.org/2000/svg"><g opacity=".9" clip-path="url(#clip0)"><path d="M11.33 9.496L4.22 16.604a1.03 1.03 0 0 0-.303.735c0 .278.108.54.303.735l.623.622c.196.196.457.304.735.304.279 0 .54-.108.735-.304l8.463-8.463a1.03 1.03 0 0 0 .303-.737c0-.28-.107-.541-.303-.738L6.322.304A1.03 1.03 0 0 0 5.587 0c-.278 0-.54.108-.735.304l-.623.622a1.04 1.04 0 0 0 0 1.47l7.1 7.1z" fill="#39BAF0"/></g><defs><clipPath id="clip0"><path fill="#fff" transform="rotate(180 9.5 9.5)" d="M0 0h19v19H0z"/></clipPath></defs></svg>