<svg xmlns="http://www.w3.org/2000/svg" xmlns:xlink="http://www.w3.org/1999/xlink"><defs>
<clipPath id="clip0">
<rect width="28" height="28" fill="white"/>
</clipPath>
</defs><symbol id="icon-cloud" viewBox="0 0 26 21">
<path d="M21.6627 6.76291C20.461 1.97588 15.6063 -0.93062 10.8193 0.271038C7.07834 1.21013 4.36199 4.44338 4.08212 8.29019C1.42589 8.72824 -0.372332 11.2366 0.0657104 13.8928C0.455109 16.2543 2.50127 17.9836 4.89453 17.9741H8.95659V16.3493H4.89453C3.09981 16.3493 1.64489 14.8944 1.64489 13.0997C1.64489 11.305 3.09981 9.85002 4.89453 9.85002C5.34323 9.85002 5.70694 9.48632 5.70694 9.03761C5.70288 4.99947 8.97319 1.72261 13.0113 1.7186C16.5069 1.7151 19.5161 4.18635 20.1922 7.61589C20.259 7.95832 20.5369 8.21992 20.8828 8.26582C23.1038 8.5821 24.6478 10.639 24.3316 12.86C24.0476 14.8543 22.3448 16.3393 20.3303 16.3493H17.0807V17.9741H20.3303C23.4711 17.9646 26.0095 15.4108 26 12.27C25.992 9.6556 24.2025 7.38334 21.6627 6.76291Z" fill="#323B47"/>
<path d="M12.4411 10.0856L9.19141 13.3353L10.3369 14.4808L12.2055 12.6203V20.4114H13.8303V12.6203L15.6907 14.4808L16.8362 13.3353L13.5866 10.0856C13.2697 9.77061 12.7579 9.77061 12.4411 10.0856Z" fill="#323B47"/>
</symbol><symbol id="icon-facebook" viewBox="0 0 15 27">
<path d="M9.1875 9.28125V5.90625C9.1875 4.97475 9.9435 4.21875 10.875 4.21875H12.5625V0H9.1875C6.39131 0 4.125 2.26631 4.125 5.0625V9.28125H0.75V13.5H4.125V27H9.1875V13.5H12.5625L14.25 9.28125H9.1875Z" fill="#323B47"/>
</symbol><symbol id="icon-instagram" viewBox="0 0 28 28">
<g clip-path="url(#clip0)">
<path d="M27.9722 8.23208C27.9066 6.74433 27.6661 5.72152 27.3214 4.83523C26.9659 3.89447 26.4189 3.0522 25.7023 2.35202C25.0021 1.64095 24.1543 1.08841 23.2244 0.738425C22.333 0.393784 21.3155 0.153198 19.8278 0.0876025C18.3289 0.0164522 17.8531 0 14.0516 0C10.25 0 9.7742 0.0164522 8.2809 0.0820473C6.79315 0.147642 5.77034 0.388443 4.88427 0.73287C3.94329 1.08841 3.10103 1.63539 2.40085 2.35202C1.68977 3.0522 1.13745 3.90002 0.787253 4.82989C0.442612 5.72152 0.202026 6.73877 0.136431 8.22652C0.0652803 9.72538 0.0488281 10.2012 0.0488281 14.0027C0.0488281 17.8043 0.0652803 18.2801 0.130875 19.7734C0.19647 21.2611 0.43727 22.284 0.781911 23.1702C1.13745 24.111 1.68977 24.9533 2.40085 25.6534C3.10103 26.3645 3.94885 26.9171 4.87872 27.267C5.77034 27.6117 6.7876 27.8523 8.27556 27.9179C9.76865 27.9837 10.2447 27.9999 14.0462 27.9999C17.8477 27.9999 18.3236 27.9837 19.8169 27.9179C21.3046 27.8523 22.3274 27.6117 23.2135 27.267C25.0952 26.5395 26.583 25.0518 27.3105 23.1702C27.6549 22.2786 27.8957 21.2611 27.9613 19.7734C28.0269 18.2801 28.0434 17.8043 28.0434 14.0027C28.0434 10.2012 28.0378 9.72538 27.9722 8.23208ZM25.4508 19.664C25.3905 21.0315 25.1608 21.7699 24.9694 22.2622C24.4989 23.482 23.5308 24.4501 22.311 24.9206C21.8187 25.112 21.0749 25.3417 19.7128 25.4017C18.236 25.4676 17.793 25.4838 14.0571 25.4838C10.3212 25.4838 9.8727 25.4676 8.40119 25.4017C7.03374 25.3417 6.29531 25.112 5.80303 24.9206C5.19601 24.6962 4.64347 24.3407 4.19499 23.8758C3.73006 23.4217 3.37452 22.8747 3.15017 22.2677C2.95873 21.7754 2.72904 21.0315 2.669 19.6696C2.60319 18.1927 2.58695 17.7496 2.58695 14.0136C2.58695 10.2777 2.60319 9.82922 2.669 8.35792C2.72904 6.99047 2.95873 6.25204 3.15017 5.75976C3.37452 5.15253 3.73006 4.6002 4.20055 4.15151C4.65437 3.68657 5.20135 3.33103 5.80859 3.1069C6.30087 2.91546 7.04485 2.68577 8.40675 2.62551C9.8836 2.55992 10.3267 2.54347 14.0625 2.54347C17.8039 2.54347 18.2469 2.55992 19.7184 2.62551C21.0858 2.68577 21.8242 2.91546 22.3165 3.1069C22.9236 3.33103 23.4761 3.68657 23.9246 4.15151C24.3895 4.60554 24.745 5.15253 24.9694 5.75976C25.1608 6.25204 25.3905 6.99581 25.4508 8.35792C25.5164 9.83478 25.5328 10.2777 25.5328 14.0136C25.5328 17.7496 25.5164 18.1871 25.4508 19.664Z" fill="#323B47"/>
<path d="M14.0522 6.80981C10.0812 6.80981 6.85938 10.0315 6.85938 14.0026C6.85938 17.9738 10.0812 21.1954 14.0522 21.1954C18.0234 21.1954 21.245 17.9738 21.245 14.0026C21.245 10.0315 18.0234 6.80981 14.0522 6.80981ZM14.0522 18.6684C11.476 18.6684 9.38639 16.579 9.38639 14.0026C9.38639 11.4263 11.476 9.33683 14.0522 9.33683C16.6286 9.33683 18.718 11.4263 18.718 14.0026C18.718 16.579 16.6286 18.6684 14.0522 18.6684Z" fill="#323B47"/>
<path d="M23.2082 6.52563C23.2082 7.45294 22.4563 8.20482 21.5288 8.20482C20.6015 8.20482 19.8496 7.45294 19.8496 6.52563C19.8496 5.59811 20.6015 4.84644 21.5288 4.84644C22.4563 4.84644 23.2082 5.59811 23.2082 6.52563Z" fill="#323B47"/>
</g>

</symbol><symbol id="icon-logo" viewBox="0 0 107 83">
<path d="M66.4749 33.547L67.1432 30.3349H60.6911L61.2695 27.6239H67.7345L68.4028 24.4119H58.7375L55.5371 39.5086H65.2025L65.8837 36.2965H59.4315L60.0099 33.547H66.4749Z" fill="#127CC2"/>
<path d="M49.6884 39.5086L49.2771 35.4614H42.1566L40.0102 39.5086H35.9102L47.979 18.2704H50.8195L53.8656 39.5086H49.6884ZM43.956 32.1209H48.943L47.9404 24.99L43.956 32.1209Z" fill="#127CC2"/>
<path d="M92.9776 26.5189C92.4084 25.7771 91.6681 25.184 90.8198 24.7903C89.9716 24.3965 89.0406 24.2137 88.1064 24.2576C85.9473 24.2779 83.8691 25.0815 82.2584 26.5189C80.5291 27.8861 79.3295 29.8121 78.8652 31.9666C78.6187 32.8927 78.5878 33.863 78.775 34.8029C78.9621 35.7429 79.3624 36.6274 79.9449 37.3886C80.514 38.1345 81.2558 38.7312 82.1065 39.1274C82.9573 39.5235 83.8915 39.7072 84.8289 39.6627C86.982 39.6385 89.0522 38.8299 90.6513 37.3886C92.3797 36.0338 93.5763 34.1145 94.0316 31.9666C94.2849 31.0385 94.3215 30.0646 94.1388 29.1201C93.9561 28.1756 93.5588 27.2857 92.9776 26.5189ZM90.767 31.9666C90.4975 33.1928 89.8229 34.2926 88.8519 35.0887C87.9383 35.9037 86.7602 36.3601 85.5359 36.3735C85.0039 36.398 84.4739 36.2939 83.9907 36.0703C83.5074 35.8467 83.0852 35.51 82.7596 35.0887C82.4303 34.6474 82.2058 34.1369 82.1034 33.5959C82.0009 33.0549 82.0232 32.4977 82.1684 31.9666C82.4321 30.7381 83.1078 29.6365 84.0835 28.8444C85.0041 28.0326 86.1849 27.5769 87.4124 27.5596C87.9407 27.5351 88.467 27.6392 88.9461 27.863C89.4252 28.0868 89.8428 28.4236 90.1629 28.8444C90.4911 29.2864 90.7157 29.7964 90.8203 30.3368C90.9248 30.8772 90.9066 31.4342 90.767 31.9666Z" fill="#127CC2"/>
<path d="M78.0678 25.6967C77.7477 25.2758 77.3301 24.939 76.851 24.7152C76.3719 24.4914 75.8455 24.3873 75.3172 24.4118H70.1761L66.9629 39.5086H70.189L71.3329 34.0995L73.2608 39.5086H77.1166L74.7646 33.2258C75.7685 32.9411 76.6677 32.3703 77.3525 31.5831C78.0372 30.796 78.4778 29.8265 78.6204 28.7931C78.7513 28.2672 78.7697 27.7195 78.6744 27.186C78.5792 26.6524 78.3725 26.145 78.0678 25.6967ZM75.4972 28.9601C75.4463 29.3645 75.2763 29.7447 75.0088 30.0523C74.9069 30.1661 74.7821 30.257 74.6425 30.319C74.503 30.381 74.3518 30.4127 74.199 30.412H72.104L72.6824 27.6753H74.6232C75.3301 27.6239 75.6 28.0608 75.4586 28.9088L75.4972 28.9601Z" fill="#127CC2"/>
<path d="M24.6258 59.1664L26.4637 50.5709H21.2326L19.4075 59.1664H15.3203L19.8317 37.941H23.9189L22.0938 46.4723H27.3249L29.1371 37.941H33.2243L28.713 59.1664H24.6258Z" fill="#00446C"/>
<path d="M41.7588 43.9284C39.6166 43.9779 37.5655 44.8044 35.9878 46.2539C34.2619 47.6186 33.0627 49.5393 32.5947 51.6887C32.349 52.617 32.3185 53.5892 32.5056 54.531C32.6927 55.4728 33.0924 56.3596 33.6743 57.1236C34.2524 57.8546 34.9979 58.4359 35.848 58.8183C36.698 59.2007 37.6277 59.373 38.5584 59.3206C40.7088 59.2953 42.7773 58.492 44.3807 57.0593C46.1076 55.6977 47.3034 53.775 47.761 51.6245C47.9932 50.7023 48.012 49.7392 47.816 48.8086C47.62 47.878 47.2144 47.0043 46.63 46.2539C46.07 45.4979 45.3331 44.8906 44.4839 44.4852C43.6347 44.0797 42.699 43.8886 41.7588 43.9284ZM44.4193 51.6374C44.1502 52.8668 43.4703 53.968 42.4914 54.7595C41.5829 55.5746 40.4088 56.0313 39.1882 56.0443C38.6561 56.0698 38.1257 55.9663 37.6423 55.7426C37.1589 55.5188 36.7368 55.1816 36.412 54.7595C36.0826 54.3182 35.8581 53.8077 35.7557 53.2667C35.6533 52.7257 35.6755 52.1685 35.8207 51.6374C36.0845 50.4089 36.7601 49.3073 37.7358 48.5152C38.6564 47.7034 39.8372 47.2476 41.0647 47.2304C41.593 47.2058 42.1193 47.3099 42.5985 47.5337C43.0776 47.7575 43.4951 48.0944 43.8152 48.5152C44.1415 48.9556 44.3651 49.4635 44.4696 50.0015C44.5741 50.5395 44.5569 51.094 44.4193 51.6245V51.6374Z" fill="#00446C"/>
<path d="M67.3101 50.1084C66.7427 49.9846 66.1998 49.7676 65.7035 49.466C65.6087 49.3619 65.5441 49.2338 65.517 49.0956C65.4898 48.9574 65.5009 48.8145 65.5493 48.6822C65.6435 48.2784 65.8868 47.925 66.2305 47.6929C66.6082 47.4321 67.0567 47.2931 67.5158 47.2946C67.9143 47.279 68.3026 47.4223 68.5954 47.6929C68.7254 47.8182 68.819 47.9763 68.8666 48.1504C68.9141 48.3246 68.9136 48.5083 68.8653 48.6822H72.1557C72.3038 48.1132 72.3147 47.517 72.1873 46.943C72.0599 46.3689 71.798 45.8333 71.4231 45.3802C71.026 44.9235 70.5306 44.5625 69.9742 44.3245C69.4177 44.0864 68.8145 43.9773 68.2098 44.0054C66.8296 44.0157 65.4951 44.5013 64.4311 45.3802C63.3451 46.1879 62.5875 47.3605 62.2975 48.6822C62.1129 49.2719 62.0982 49.9016 62.2551 50.4992C62.4119 51.0968 62.734 51.6382 63.1844 52.0613C63.9492 52.6361 64.8242 53.0472 65.7549 53.2691C66.3349 53.3979 66.8904 53.6191 67.4001 53.9243C67.4937 54.037 67.5561 54.1722 67.5809 54.3166C67.6057 54.4609 67.5921 54.6092 67.5415 54.7466C67.4961 54.9472 67.4115 55.1367 67.2923 55.3043C67.1732 55.472 67.022 55.6143 66.8474 55.7231C66.4761 55.9981 66.0242 56.1426 65.5622 56.1342C65.3637 56.1424 65.1657 56.1102 64.9801 56.0395C64.7945 55.9688 64.6252 55.8612 64.4825 55.7231C64.3537 55.5995 64.2597 55.4442 64.21 55.2728C64.1604 55.1013 64.1568 54.9199 64.1998 54.7466H60.9737C60.826 55.3086 60.8143 55.8977 60.9394 56.4652C61.0646 57.0327 61.323 57.5622 61.6934 58.0101C62.0873 58.4673 62.5803 58.8287 63.1348 59.0669C63.6894 59.3051 64.2909 59.4139 64.8938 59.3848C66.2744 59.3767 67.6096 58.8909 68.6725 58.0101C69.7551 57.2047 70.5123 56.0375 70.8061 54.7209C70.9955 54.1256 71.0127 53.4889 70.8558 52.8842C70.6988 52.2796 70.3742 51.7315 69.9193 51.3033C69.137 50.7366 68.2503 50.3305 67.3101 50.1084Z" fill="#00446C"/>
<path d="M58.1455 44.0826L55.9991 54.1429C55.8753 54.6571 55.5752 55.1118 55.1508 55.4277C54.7487 55.7901 54.2269 55.9914 53.6855 55.993C53.441 56.0151 53.1948 55.9748 52.97 55.8759C52.7452 55.7771 52.5492 55.6229 52.4003 55.4277C52.2658 55.2454 52.1721 55.0363 52.1255 54.8146C52.079 54.5929 52.0806 54.3638 52.1304 54.1429L54.2639 44.0826H51.0507L48.9043 54.1429C48.7394 54.7749 48.7256 55.4369 48.8641 56.0752C49.0025 56.7136 49.2893 57.3104 49.7012 57.8175C50.0926 58.3124 50.5965 58.7069 51.1709 58.9683C51.7454 59.2298 52.3739 59.3506 53.0043 59.3207C54.456 59.3014 55.8539 58.7689 56.9502 57.8175C58.1028 56.9017 58.9059 55.6181 59.2251 54.1814L61.3587 44.1212L58.1455 44.0826Z" fill="#00446C"/>
<path d="M83.9923 47.2818L84.6735 44.0697H75.0081L71.7949 59.1665H81.4603L82.1415 55.9544H75.6893L76.2806 53.2048H82.7327L83.401 49.9928H76.9489L77.5401 47.2818H83.9923Z" fill="#00446C"/>
<path d="M80.5745 68.1603C78.6969 69.5309 76.7445 70.7963 74.7265 71.9505C72.289 73.329 69.7645 74.5479 67.169 75.5994C65.7937 76.1776 64.3414 76.6401 62.8762 77.1798L60.6141 77.8864C59.8429 78.1177 59.0717 78.2976 58.2877 78.516C51.7635 80.1984 45.0071 80.7974 38.2886 80.2891C34.9201 80.0368 31.5864 79.4383 28.3405 78.5031C25.2295 77.6205 22.235 76.3696 19.4207 74.7771C16.8383 73.3128 14.4721 71.4967 12.3902 69.3809C10.5778 67.4707 9.05366 65.3065 7.86595 62.9567C7.36317 61.9349 6.93366 60.8787 6.58066 59.796L6.42643 59.6547L6.31075 59.2436C6.31075 58.9609 6.16937 58.6782 6.1051 58.4084C5.96372 57.8559 5.82234 57.3292 5.68096 56.8152C5.61767 56.5795 5.57467 56.3388 5.55243 56.0957C5.55243 55.8773 5.55243 55.6589 5.55243 55.4533L5.3982 54.1685L5.32108 53.5903V52.9993C5.32108 52.6267 5.32108 52.2541 5.32108 51.9072V51.7787L0 50.5581C0 51.0206 0 51.496 0.0642643 52.0357C0.128529 52.5753 0.0642643 52.8965 0.128529 53.3205C0.128529 53.5389 0.128529 53.783 0.128529 54.0143C0.128529 54.2456 0.218498 54.5282 0.257057 54.7852C0.347027 55.2991 0.44985 55.8388 0.53982 56.3912C0.53982 56.6739 0.655495 56.9566 0.706907 57.2392C0.745592 57.5187 0.810133 57.794 0.8997 58.0615C1.05393 58.5754 1.22102 59.1022 1.38811 59.6418C1.47808 59.9117 1.5552 60.1815 1.64517 60.4641L1.77369 60.8753L1.83796 61.0809V61.1965L1.92793 61.4149C2.48044 62.718 3.1247 63.9803 3.85586 65.1923C5.37616 67.8295 7.27744 70.228 9.49826 72.3103C11.9481 74.5804 14.704 76.4963 17.6855 78.0021C20.8213 79.5858 24.1351 80.7892 27.5565 81.5867C31.0435 82.4058 34.6051 82.8665 38.1858 82.9615C45.1501 83.149 52.0977 82.1897 58.7504 80.122C59.5344 79.8651 60.3441 79.6338 61.1025 79.364L63.3646 78.5417C64.8298 77.9121 66.295 77.3597 67.6574 76.7044C70.2384 75.5057 72.7411 74.1454 75.1506 72.6315C77.1644 71.3488 79.108 69.9592 80.973 68.4686L81.1529 68.3016L80.5745 68.1603Z" fill="#127CC2"/>
<path d="M106.986 31.4784C106.986 30.8874 106.909 30.2707 106.871 29.6411C106.832 29.0115 106.703 28.3563 106.626 27.6881C106.626 27.3541 106.524 27.02 106.459 26.6731L106.215 25.6067C106.065 24.8988 105.876 24.1996 105.65 23.5124L105.315 22.5231L105.148 22.022V21.8936V21.8293V21.7008L105.045 21.431C103.803 18.3276 102.038 15.4596 99.8272 12.9511C98.6478 11.6002 97.3581 10.3496 95.9713 9.21229C94.4832 8.0268 92.9062 6.95725 91.2543 6.01306C87.9095 4.09952 84.321 2.64733 80.5864 1.69604C76.8054 0.709353 72.9249 0.153342 69.0189 0.038607C65.1489 -0.0891863 61.2756 0.151736 57.4513 0.758112C53.7516 1.34543 50.1064 2.23494 46.5521 3.41771L43.9815 4.30424L41.5266 5.33211C40.7298 5.66616 39.9329 5.98737 39.1617 6.34712C38.3905 6.70687 37.6451 7.10517 36.9125 7.47777C36.1798 7.85037 35.4215 8.19728 34.7275 8.60842L32.6967 9.89325C32.0284 10.3044 31.4114 10.677 30.7431 11.101L28.9308 12.3858L27.2086 13.6064L25.6405 14.8912C24.6553 15.6492 23.7154 16.4643 22.8257 17.3324L21.7461 18.3603L22.2731 18.4759L23.1599 17.705C24.0797 16.8885 25.0452 16.1249 26.0518 15.418L27.6327 14.1332L29.3935 13.0154L31.2315 11.8333C31.8613 11.4479 32.5168 11.1138 33.2108 10.7412L35.2673 9.63628C35.9613 9.26368 36.7068 8.96817 37.4394 8.62127L39.7015 7.60625C40.4727 7.28505 41.2696 7.01523 42.0665 6.71972L44.4828 5.83319L47.0534 5.04944C54.1441 3.00191 61.542 2.22759 68.9032 2.76245C72.5626 3.04009 76.1795 3.7253 79.6868 4.80533C83.0636 5.82787 86.2851 7.30621 89.2621 9.19944C90.6607 10.0942 91.9884 11.095 93.2337 12.1931C94.4109 13.2358 95.4946 14.3794 96.4726 15.6107C98.261 17.8215 99.6526 20.3255 100.585 23.0114L100.663 23.2426V23.3583L100.804 23.8337L101.074 24.8358C101.256 25.4235 101.389 26.0251 101.472 26.6346L101.627 27.4569C101.627 27.7267 101.691 28.0222 101.717 28.3049C101.717 28.8573 101.858 29.397 101.858 29.9366C101.858 30.4762 101.858 30.9773 101.858 31.4655C101.858 31.9538 101.858 32.442 101.781 32.9046C101.743 33.7663 101.648 34.6247 101.498 35.4742C101.498 35.8211 101.382 36.1423 101.318 36.4507L106.459 37.6327C106.536 37.183 106.601 36.7076 106.665 36.1937C106.785 35.2 106.854 34.2008 106.871 33.2001C106.986 32.6347 107.012 32.1208 106.986 31.4784Z" fill="#9BD2F5"/>
</symbol><symbol id="icon-mail" viewBox="0 0 19 15">
<path d="M18.5925 1.16959C18.5743 1.12433 18.5517 1.07454 18.5245 1.02924C18.4566 0.920533 18.357 0.848113 18.2483 0.816429C17.9042 0.540217 17.465 0.377197 16.9804 0.377197H2.01953C1.39464 0.377197 0.846744 0.648884 0.475405 1.08355C0.452774 1.10169 0.434669 1.12433 0.416564 1.14696C0.402985 1.1651 0.389406 1.18773 0.380354 1.2058C0.140351 1.53636 0 1.94391 0 2.3922V12.6031C0 13.7306 0.892081 14.6226 2.01956 14.6226H16.9805C18.108 14.6226 19 13.7306 19 12.6031V2.39669C19 1.93033 18.846 1.50924 18.5925 1.16959ZM2.01953 1.56352H16.8627L10.152 6.84781L9.49998 7.38213L1.94707 1.56805C1.96974 1.56352 1.9969 1.56352 2.01953 1.56352ZM1.19089 12.6575C1.19089 12.6393 1.19089 12.6212 1.19089 12.6031V2.48276L7.39895 7.27807L1.19089 12.6575ZM2.09198 13.4408L8.34987 8.01607L9.14226 8.63186C9.25998 8.69071 9.3777 8.74958 9.49998 8.74958C9.6177 8.74958 9.73542 8.74958 9.85771 8.57299L10.5777 8.00698L16.7857 13.4408H2.09198ZM17.8091 12.6076C17.8091 12.662 17.8046 12.7118 17.7955 12.757L11.515 7.26442L17.8046 2.32879C17.8091 2.35142 17.8091 2.37406 17.8091 2.39669V12.6076Z" fill="#323B47"/>
</symbol><symbol id="icon-phone" viewBox="0 0 16 16">
<path d="M15.965 12.3971C15.9198 12.2607 15.6318 12.0598 15.1014 11.7949C14.9578 11.7114 14.753 11.5979 14.4881 11.454C14.223 11.31 13.9823 11.1774 13.7665 11.0561C13.5503 10.9349 13.3478 10.8175 13.1585 10.7041C13.1283 10.6813 13.0336 10.6151 12.8745 10.505C12.7152 10.3953 12.581 10.3138 12.4709 10.2607C12.3611 10.2079 12.2531 10.1813 12.147 10.1813C11.9955 10.1813 11.8063 10.2893 11.5791 10.505C11.3519 10.7211 11.1435 10.9558 10.9542 11.2098C10.7649 11.4637 10.5641 11.6983 10.3522 11.9142C10.14 12.1302 9.96562 12.2382 9.82942 12.2382C9.76104 12.2382 9.67579 12.2191 9.57362 12.1815C9.47149 12.1436 9.3938 12.1112 9.34047 12.085C9.28761 12.0583 9.1969 12.0055 9.06803 11.9257C8.93891 11.8461 8.86711 11.8025 8.85198 11.7949C7.81417 11.219 6.9241 10.5599 6.1816 9.81776C5.43935 9.07515 4.78016 8.18516 4.20444 7.14722C4.19688 7.13206 4.15321 7.06006 4.07373 6.93134C3.99413 6.8025 3.94107 6.71172 3.91457 6.65854C3.88806 6.60557 3.85586 6.52787 3.81805 6.42562C3.78024 6.32337 3.76125 6.2382 3.76125 6.16994C3.76125 6.03366 3.86923 5.85933 4.08516 5.64719C4.30104 5.43517 4.53594 5.23433 4.78964 5.04508C5.04353 4.85583 5.2782 4.64743 5.49416 4.42024C5.71004 4.19294 5.81798 4.00364 5.81798 3.85216C5.81798 3.74617 5.79147 3.63811 5.7385 3.5283C5.68548 3.41825 5.60405 3.28396 5.49416 3.12479C5.38423 2.96571 5.31796 2.8711 5.29519 2.84065C5.18168 2.6514 5.06438 2.44877 4.94303 2.23285C4.82168 2.01697 4.68922 1.77633 4.54522 1.51121C4.40134 1.24622 4.28778 1.0416 4.20436 0.897676C3.93936 0.367484 3.73865 0.079483 3.60225 0.0341892C3.54919 0.0114627 3.46959 0 3.36364 0C3.15898 0 2.89199 0.0378111 2.56248 0.113672C2.23285 0.189414 1.97346 0.268857 1.78405 0.35232C1.40526 0.511326 1.00379 0.973418 0.579505 1.73844C0.193155 2.4504 0 3.15508 0 3.85196C0 4.05634 0.0132538 4.25519 0.0397614 4.44854C0.066269 4.6417 0.113632 4.85953 0.181891 5.102C0.250031 5.34439 0.304997 5.52445 0.346549 5.6417C0.388141 5.75903 0.465793 5.96922 0.579466 6.27235C0.692979 6.5754 0.761238 6.76091 0.783964 6.82909C1.04908 7.57154 1.36347 8.23435 1.72705 8.81772C2.32527 9.78735 3.14163 10.7894 4.17566 11.8235C5.20974 12.8576 6.21161 13.6739 7.18133 14.2724C7.76462 14.6359 8.42766 14.9502 9.17 15.2156C9.23822 15.2382 9.42373 15.3063 9.72666 15.4202C10.0297 15.5338 10.24 15.6114 10.3573 15.6531C10.4747 15.6948 10.6548 15.7498 10.897 15.8181C11.1397 15.8863 11.3573 15.9337 11.5505 15.9604C11.7437 15.9865 11.9426 16 12.147 16C12.8439 16 13.5486 15.8068 14.2607 15.4205C15.0256 14.9963 15.4876 14.5948 15.6467 14.2157C15.7303 14.0265 15.8096 13.767 15.8853 13.4374C15.9613 13.1079 15.999 12.841 15.999 12.6364C15.9993 12.53 15.9879 12.4506 15.965 12.3971Z" fill="#323B47"/>
</symbol><symbol id="icon-pin" viewBox="0 0 15 21">
<path d="M7.3218 0.645996C3.54844 0.645996 0.478516 3.71592 0.478516 7.48928C0.478516 12.232 7.32852 20.3335 7.32852 20.3335C7.32852 20.3335 14.1651 11.9988 14.1651 7.48928C14.1651 3.71592 11.0953 0.645996 7.3218 0.645996ZM9.38656 9.49299C8.81722 10.0622 8.06957 10.3469 7.3218 10.3469C6.57414 10.3469 5.82625 10.0622 5.25716 9.49299C4.11861 8.35457 4.11861 6.50214 5.25716 5.36359C5.80846 4.81205 6.54182 4.50827 7.3218 4.50827C8.10177 4.50827 8.83501 4.81217 9.38656 5.36359C10.5251 6.50214 10.5251 8.35457 9.38656 9.49299Z" fill="#323B47"/>
</symbol><symbol id="icon-whatsapp" viewBox="0 0 26 26">
<path d="M13 0C5.85968 0 0 5.85968 0 13C0 15.3566 0.635361 17.6507 1.84023 19.6577L0 26L6.3423 24.1598C8.34935 25.3646 10.6434 26 13 26C20.1403 26 26 20.1403 26 13C26 5.85968 20.1403 0 13 0ZM21.1278 18.4929L20.523 19.0977C19.6672 19.9535 17.6992 19.8856 16.4347 19.6414C12.2299 18.8293 7.32777 14.0777 6.38237 9.96284C5.91423 7.92445 6.1727 6.15227 6.84872 5.47604L7.45354 4.87123C7.78738 4.53758 8.32971 4.53798 8.66316 4.87123L11.0828 7.29108C11.2443 7.45255 11.3327 7.66658 11.3327 7.89569C11.3327 8.1248 11.2443 8.33904 11.0828 8.49991L10.4782 9.10532C9.81169 9.77341 9.81169 10.8587 10.4782 11.5252L14.4738 15.4682C15.1423 16.1367 16.2242 16.1375 16.8937 15.4682L17.4985 14.8636C17.8107 14.5496 18.3939 14.5486 18.7087 14.8636L21.1278 17.2827C21.4563 17.6098 21.4688 18.1517 21.1278 18.4929Z" fill="#323B47"/>
</symbol></svg>