<svg width="19" height="19" fill="none" xmlns="http://www.w3.org/2000/svg"><g opacity=".9" clip-path="url(#clip0)"><path d="M7.67 9.504l7.108-7.108a1.03 1.03 0 0 0 .303-.735c0-.278-.108-.54-.303-.735l-.623-.622A1.031 1.031 0 0 0 13.42 0c-.278 0-.54.108-.735.304L4.222 8.767a1.03 1.03 0 0 0-.303.737c0 .28.107.541.303.738l8.455 8.454c.196.196.457.304.735.304.278 0 .54-.108.735-.304l.623-.622a1.04 1.04 0 0 0 0-1.47l-7.1-7.1z" fill="#39BAF0"/></g><defs><clipPath id="clip0"><path fill="#fff" d="M0 0h19v19H0z"/></clipPath></defs></svg>