<svg width="60" height="60" viewBox="0 0 60 60" fill="none" xmlns="http://www.w3.org/2000/svg">
<g clip-path="url(#clip0)">
<path d="M52.8991 20.353C52.8991 19.6964 52.3667 19.1639 51.71 19.1639H21.8628C21.2062 19.1639 20.6737 19.6964 20.6737 20.353V40.2499C20.6737 40.9065 21.2062 41.439 21.8628 41.439H33.0156V43.9597H17.2044V13.0561H56.2768V15.8248C56.2768 17.3516 58.655 17.3537 58.655 15.8248V1.1891C58.655 0.532479 58.1225 0 57.4659 0H2.53383C1.87721 0 1.34473 0.532479 1.34473 1.1891L1.34485 58.8109C1.34485 59.4675 1.87732 60 2.53395 60H29.9998H57.4658C58.1224 60 58.6549 59.4675 58.6549 58.8109V45.1488V25.3994C58.6549 23.8726 56.2767 23.8705 56.2767 25.3994V43.9599H40.2276V41.439H51.7099C52.3665 41.439 52.899 40.9065 52.899 40.2499V20.353H52.8991ZM23.0519 21.5421H50.5209V34.05H23.0519V21.5421ZM23.0519 36.4282H50.5209V39.0609H23.0519V36.4282ZM35.3938 43.9423V41.4564H37.8494V43.9423H35.3938ZM33.1551 10.6034V8.63846H37.7172V10.6033H33.1551V10.6034ZM40.0954 6.51746H48.2112V10.6034H40.0954V6.51746ZM10.1583 14.6357H8.39074V11.867C8.39074 11.3796 8.78719 10.9831 9.2746 10.9831C9.76201 10.9831 10.1585 11.3796 10.1585 11.867V14.6357H10.1583ZM11.5885 17.0139L10.8274 21.7721H7.72187L6.96085 17.0139H11.5885ZM14.8262 24.1503V32.8664H13.6852V28.5085C13.6852 27.8518 13.1527 27.3193 12.4961 27.3193H6.02312C5.3665 27.3193 4.83402 27.8518 4.83402 28.5085V32.8664H3.72305V24.1503H14.8262ZM11.307 32.8663H7.21222V29.6974H11.307V32.8663ZM8.0855 43.9423H3.72305V41.439H8.0855V43.9423ZM14.8262 35.2445V43.9423H10.4637V40.2499C10.4637 39.5932 9.93122 39.0608 9.2746 39.0608H3.72305V35.2445H14.8262ZM14.8262 2.3782V11.867V21.7721H13.2357L14.157 16.0125C14.2433 15.474 13.9386 14.9317 13.4344 14.7248C13.1496 14.6079 12.8377 14.6357 12.5368 14.6357V11.867C12.5368 10.0684 11.0734 8.60493 9.27472 8.60493C7.47609 8.60493 6.01254 10.0684 6.01254 11.867V14.6357C5.71146 14.6357 5.3998 14.6079 5.11501 14.7248C4.61071 14.9317 4.30606 15.474 4.39239 16.0125L5.31371 21.7721H3.72293V2.3782H14.8262ZM56.2768 57.6218H31.189V46.3379H56.2768V57.6218ZM28.8108 46.3379V57.6218H3.72305V46.3379H28.8108ZM17.2044 2.3782H48.2112V4.13926H38.9063C38.2497 4.13926 37.7172 4.67174 37.7172 5.32836V6.26038H31.966C31.3093 6.26038 30.7769 6.79286 30.7769 7.44948V10.6779H17.2044V2.3782ZM50.5894 2.3782H56.2768V10.6779H50.5894V2.3782Z" fill="#39BAF0"/>
<path d="M34.0107 52.5706C34.2602 53.1689 34.9625 53.4617 35.5625 53.2139C36.1613 52.9665 36.4541 52.2591 36.2058 51.6608C35.9575 51.0623 35.253 50.7701 34.6539 51.0176C34.0559 51.2646 33.7615 51.9729 34.0107 52.5706Z" fill="#39BAF0"/>
<path d="M58.4546 19.9199C58.1751 19.4935 57.6278 19.2958 57.1394 19.4365C56.668 19.5724 56.3226 19.9942 56.2806 20.4828C56.2379 20.9777 56.5252 21.4573 56.9756 21.6619C57.4214 21.8645 57.9602 21.7658 58.3071 21.4205C58.7037 21.026 58.7642 20.384 58.4546 19.9199Z" fill="#39BAF0"/>
<path d="M15.7816 50.9497C14.7568 51.161 14.485 52.557 15.3792 53.1198C15.8086 53.3901 16.3753 53.3566 16.769 53.035C17.153 52.7213 17.3003 52.1805 17.1331 51.7148C16.9368 51.1676 16.3525 50.8347 15.7816 50.9497Z" fill="#39BAF0"/>
<path d="M40.0473 53.305H45.6208C47.1476 53.305 47.1497 50.9268 45.6208 50.9268H40.0473C38.5205 50.9268 38.5183 53.305 40.0473 53.305Z" fill="#39BAF0"/>
</g>
<defs>
<clipPath id="clip0">
<rect width="60" height="60" fill="white"/>
</clipPath>
</defs>
</svg>
