<svg width="60" height="60" viewBox="0 0 60 60" fill="none" xmlns="http://www.w3.org/2000/svg">
<path d="M30 19.9219C30.6472 19.9219 31.1719 19.3972 31.1719 18.75C31.1719 18.1028 30.6472 17.5781 30 17.5781C29.3528 17.5781 28.8281 18.1028 28.8281 18.75C28.8281 19.3972 29.3528 19.9219 30 19.9219Z" fill="#39BAF0"/>
<path d="M58.8281 32.3438H44.6254C42.8872 30.178 40.6869 28.4198 38.2031 27.2064V15.2344C38.2031 14.7905 37.9523 14.3848 37.5553 14.1862L31.1719 10.9945V5.85938H33.5156C34.1629 5.85938 34.6875 5.33461 34.6875 4.6875C34.6875 4.04039 34.1629 3.51562 33.5156 3.51562H31.1719V1.17188C31.1719 0.524766 30.6472 0 30 0C29.3528 0 28.8281 0.524766 28.8281 1.17188V3.51562H26.4844C25.8371 3.51562 25.3125 4.04039 25.3125 4.6875C25.3125 5.33461 25.8371 5.85938 26.4844 5.85938H28.8281V10.9945L22.4447 14.1862C22.0477 14.3848 21.7969 14.7905 21.7969 15.2344V27.2064C19.313 28.4198 17.1125 30.1782 15.3746 32.3438H1.17188C0.524648 32.3438 0 32.8685 0 33.5156V58.8281C0 59.4752 0.524648 60 1.17188 60H58.8281C59.4754 60 60 59.4752 60 58.8281V33.5156C60 32.8685 59.4754 32.3438 58.8281 32.3438ZM57.6562 39.375H48.1563C47.7318 37.7395 47.0797 36.1556 46.2304 34.6875H57.6562V39.375ZM30 13.029L35.8594 15.9587V26.2502C33.9764 25.6283 32.0128 25.3126 30 25.3126C27.9872 25.3126 26.0236 25.6283 24.1406 26.2502V15.9587L30 13.029ZM13.7698 34.6875C12.9202 36.1559 12.2682 37.7396 11.8437 39.375H2.34375V34.6875H13.7698ZM14.4141 57.6562H9.72656V51.0938C9.72656 49.8014 10.778 48.75 12.0703 48.75C13.3627 48.75 14.4141 49.8014 14.4141 51.0938V57.6562ZM50.2734 57.6562H45.5859V51.0938C45.5859 49.8014 46.6373 48.75 47.9297 48.75C49.222 48.75 50.2734 49.8014 50.2734 51.0938V57.6562ZM52.6172 57.6562V51.0938C52.6172 48.5091 50.5144 46.4062 47.9297 46.4062C45.345 46.4062 43.2422 48.5091 43.2422 51.0938V57.6562H38.2031V56.0156C38.2031 55.3685 37.6785 54.8438 37.0312 54.8438C36.384 54.8438 35.8594 55.3685 35.8594 56.0156V57.6562H24.1406V44.0625C24.1406 40.8316 26.7691 38.2031 30 38.2031C33.2309 38.2031 35.8594 40.8316 35.8594 44.0625V45.4688C35.8594 46.1159 36.384 46.6406 37.0312 46.6406C37.6785 46.6406 38.2031 46.1159 38.2031 45.4688V44.0625C38.2031 39.5392 34.5232 35.8594 30 35.8594C25.4768 35.8594 21.7969 39.5392 21.7969 44.0625V57.6562H16.7578V51.0938C16.7578 48.5091 14.655 46.4062 12.0703 46.4062C9.48563 46.4062 7.38281 48.5091 7.38281 51.0938V57.6562H2.34375V41.7188H12.7746C13.3315 41.7188 13.8115 41.3268 13.9228 40.7811C15.4529 33.2831 22.0958 27.6562 30 27.6562C37.9166 27.6562 44.5499 33.2967 46.0772 40.7811C46.1885 41.3268 46.6685 41.7188 47.2254 41.7188H57.6562V57.6562H52.6172Z" fill="#39BAF0"/>
<path d="M37.0312 51.9141C37.6785 51.9141 38.2031 51.3894 38.2031 50.7422C38.2031 50.095 37.6785 49.5703 37.0312 49.5703C36.384 49.5703 35.8594 50.095 35.8594 50.7422C35.8594 51.3894 36.384 51.9141 37.0312 51.9141Z" fill="#39BAF0"/>
</svg>
