<svg width="22" height="22" viewBox="0 0 22 22" fill="none" xmlns="http://www.w3.org/2000/svg">
<path d="M16.4922 7.38365C16.1536 7.02658 15.589 7.01086 15.2314 7.35035L9.53757 12.7502L6.82178 9.96182C6.47781 9.60892 5.91385 9.60118 5.56064 9.94519C5.20774 10.2889 5.20031 10.8534 5.54397 11.2063L8.8737 14.6249C9.0482 14.8042 9.2801 14.8946 9.51261 14.8946C9.73321 14.8946 9.95381 14.8131 10.1265 14.6499L16.459 8.64453C16.8163 8.30559 16.8314 7.74102 16.4922 7.38365Z" fill="#39BAF0"/>
<path d="M11 0C4.93453 0 0 4.93453 0 11C0 17.0655 4.93453 22 11 22C17.0655 22 22 17.0655 22 11C22 4.93453 17.0655 0 11 0ZM11 20.2162C5.9183 20.2162 1.78376 16.082 1.78376 11C1.78376 5.9183 5.91826 1.78376 11 1.78376C16.082 1.78376 20.2162 5.91826 20.2162 11C20.2162 16.082 16.082 20.2162 11 20.2162Z" fill="#39BAF0"/>
</svg>
