<svg width="52" height="52" viewBox="0 0 52 52" fill="none" xmlns="http://www.w3.org/2000/svg">
<g clip-path="url(#clip0)">
<path d="M33.9948 0H7.53972C6.88967 0 6.30469 0.520019 6.30469 1.23503V50.765C6.30469 51.4151 6.82471 52.0001 7.53972 52.0001H44.4598C45.1099 52.0001 45.6948 51.4801 45.6948 50.765V11.7001C45.6948 11.375 45.5648 11.05 45.3698 10.855L34.8397 0.325025C34.5798 0.130032 34.3197 0 33.9948 0Z" fill="#EBF0F3"/>
<path d="M35.6848 11.18H45.5648C45.4999 11.05 45.4348 10.9201 45.3049 10.855L40.0398 5.58996L34.8397 0.325019C34.7097 0.194987 34.6447 0.130025 34.5147 0.0650635V9.945C34.4497 10.66 35.0347 11.18 35.6848 11.18Z" fill="#D5D6DB"/>
<path d="M14.8851 45.9551C13.9751 45.9551 13.2601 45.4351 12.9351 45.11C11.8301 43.8101 11.8301 42.7051 12.0251 41.99C12.1551 41.34 12.5451 40.755 13.1301 40.365C13.9751 39.715 16.315 38.0901 19.7601 36.66C21.5801 33.345 22.8151 30.68 23.66 28.535C22.23 25.805 21.71 23.595 21.5801 22.49C21.45 21.58 21.5151 20.67 21.7751 19.89C22.4251 17.8101 23.855 17.745 24.44 17.81C24.5701 17.81 26.845 18.1351 27.235 21.385C27.235 21.515 27.495 23.595 25.74 28.47C26.845 30.3549 28.405 32.435 30.8101 34.45C33.085 34.45 35.5551 34.645 38.1551 35.2951C38.7401 35.4251 39.2601 35.75 39.6501 36.2051C40.3001 36.9201 40.4301 37.8301 40.105 38.7401C40.105 38.7401 39.975 39.1951 39.585 39.6501C38.87 40.6251 37.505 40.9501 36.4 40.3651C33.9301 39.0651 31.85 37.7002 30.16 36.2701C26.715 36.4002 23.66 37.1802 21.19 38.1551C20.085 40.1701 18.72 42.3801 17.16 44.8501C16.8349 45.305 16.445 45.6951 15.9249 45.8901C15.4701 45.89 15.1451 45.9551 14.8851 45.9551ZM18.0701 39.39C16.12 40.4301 14.7551 41.3401 14.2351 41.795C14.0401 41.99 13.8451 42.185 13.8451 42.38C13.715 42.835 13.91 43.29 14.3651 43.8101C14.3651 43.8101 14.7551 44.1351 15.1451 44.005C15.2751 43.9401 15.405 43.875 15.4701 43.68C16.3801 42.185 17.2901 40.755 18.0701 39.39ZM33.2151 36.27C34.385 37.05 35.685 37.8951 37.1151 38.6101C37.375 38.7401 37.7 38.675 37.895 38.4151C38.09 38.1551 38.155 37.9601 38.155 37.9601C38.285 37.6351 38.285 37.5052 38.09 37.3101C37.96 37.18 37.765 37.0501 37.505 36.9851C36.0751 36.5951 34.6451 36.4001 33.2151 36.27ZM24.7651 30.4851C24.115 31.9801 23.335 33.6701 22.2951 35.6201C24.0501 35.1001 25.9351 34.6451 28.0151 34.4501C26.7151 33.0851 25.6101 31.72 24.7651 30.4851ZM24.1151 19.565C23.8552 19.565 23.6602 19.825 23.4651 20.41C23.2701 20.9301 23.2701 21.515 23.335 22.1651C23.4651 22.9451 23.725 24.2451 24.44 25.935C25.415 22.815 25.2851 21.515 25.2851 21.515C25.0901 19.76 24.1801 19.565 24.1151 19.565Z" fill="#E56353"/>
</g>
<defs>
<clipPath id="clip0">
<rect width="52" height="52" fill="white"/>
</clipPath>
</defs>
</svg>
