<svg width="60" height="60" viewBox="0 0 60 60" fill="none" xmlns="http://www.w3.org/2000/svg">
<g clip-path="url(#clip0)">
<path d="M48.0025 45.004H51.0015C52.1059 45.004 53.0015 44.1088 53.0015 43.0044V40.0049C53.0015 38.9006 52.1059 38.0054 51.0015 38.0054H48.0025C46.8981 38.0054 46.0029 38.9006 46.0029 40.0049V43.0044C46.0029 44.1088 46.8981 45.004 48.0025 45.004ZM48.0025 40.0049H51.0015V43.0044H48.0025V40.0049Z" fill="#39BAF0"/>
<path d="M27.0079 38.0054H24.0083C22.904 38.0054 22.0088 38.9006 22.0088 40.0049V43.0044C22.0088 44.1088 22.904 45.004 24.0083 45.004H27.0079C28.1122 45.004 29.0074 44.1088 29.0074 43.0044V40.0049C29.0074 38.9006 28.1122 38.0054 27.0079 38.0054ZM24.0083 43.0044V40.0049H27.0079V43.0044H24.0083Z" fill="#39BAF0"/>
<path d="M14.0098 38.0054H11.0103C9.90594 38.0054 9.01074 38.9006 9.01074 40.0049V43.0044C9.01074 44.1088 9.90594 45.004 11.0103 45.004H14.0098C15.1142 45.004 16.0094 44.1088 16.0094 43.0044V40.0049C16.0094 38.9006 15.1142 38.0054 14.0098 38.0054ZM11.0103 43.0044V40.0049H14.0098V43.0044H11.0103Z" fill="#39BAF0"/>
<path d="M7.51126 15.0108C9.8664 15.009 12.0829 13.8973 13.4929 12.0113H19.0087C20.6655 12.0113 22.0083 10.6685 22.0083 9.01177C22.0083 8.45983 22.4558 8.01223 23.0083 8.01223H31.0064C32.6627 8.01223 34.0055 6.66944 34.0055 5.0127C34.0055 3.35641 32.6627 2.01362 31.0064 2.01362H16.0096C15.0755 2.01636 14.1968 2.45618 13.6353 3.20217C11.5904 0.291425 7.78265 -0.782257 4.51859 0.631928C1.25498 2.04565 -0.566529 5.55778 0.157955 9.04015C0.882896 12.5225 3.95429 15.0163 7.51126 15.0108ZM16.0096 4.01316H31.0064C31.5583 4.01316 32.0059 4.46075 32.0059 5.0127C32.0059 5.5651 31.5583 6.01269 31.0064 6.01269H23.0083C21.3515 6.01269 20.0087 7.35548 20.0087 9.01177C20.0087 9.56417 19.5611 10.0118 19.0087 10.0118H8.01149C7.45908 10.0118 7.01149 9.56417 7.01149 9.01177C7.01149 8.45983 7.45908 8.01223 8.01149 8.01223H12.0106C13.1122 8.00811 14.1222 7.39896 14.6398 6.42642C14.6527 6.40537 14.6618 6.38432 14.6737 6.36372C14.8916 5.94633 15.0069 5.48318 15.0096 5.0127C15.0096 4.46075 15.4572 4.01316 16.0096 4.01316ZM7.51126 2.01362C9.85908 2.01179 11.9447 3.51018 12.6925 5.73581C12.509 5.91201 12.265 6.01132 12.0106 6.01269H8.01149C6.35474 6.01269 5.01195 7.35548 5.01195 9.01177C5.01195 10.6685 6.35474 12.0113 8.01149 12.0113H10.6669C8.7259 13.3751 6.12865 13.3408 4.22477 11.9253C2.32088 10.5102 1.53919 8.03329 2.28564 5.78157C3.03255 3.52986 5.13918 2.01087 7.51126 2.01362Z" fill="#39BAF0"/>
<path d="M59.0002 58.0011H57.0007V35.0057H57.9004C58.489 35.0061 59.0231 34.662 59.2661 34.1261C59.5096 33.5897 59.4167 32.9613 59.029 32.5183L46.3526 18.0336C46.0364 17.6785 45.6396 17.4044 45.1961 17.2336L45.1549 17.2195C44.8176 17.0863 44.4584 17.0149 44.0954 17.0098H39.0044V13.0108C39.0044 11.9064 38.1092 11.0112 37.0048 11.0112H33.0058C31.9014 11.0112 31.0062 11.9064 31.0062 13.0108V17.0098H17.8378C17.0419 17.0071 16.2776 17.3238 15.7165 17.8886L8.30421 25.3009L4.30468 29.3L1.15869 32.4455C0.729398 32.8743 0.600795 33.5196 0.833288 34.0803C1.06532 34.6409 1.61269 35.0061 2.21955 35.0057H3.01223V52.2661C1.13443 53.5718 0.0140683 55.7137 0.0126953 58.0011C0.0200179 58.2802 0.0447318 58.5594 0.0877523 58.8358C0.0735647 58.8898 0.0634961 58.9448 0.0580042 59.0006C0.0671575 59.3205 0.232832 59.6152 0.500566 59.7896C0.532603 59.8134 0.566012 59.8349 0.600795 59.8546C0.66441 59.8898 0.731229 59.9187 0.800794 59.9406C0.865782 59.9608 0.932602 59.9741 1.00079 59.9795C1.03375 59.9882 1.0667 59.9951 1.10056 60.0006H59.0002C59.5521 60.0006 59.9997 59.553 59.9997 59.0006C59.9997 58.4487 59.5521 58.0011 59.0002 58.0011ZM56.0007 33.0061H33.2057L34.9554 31.0066H55.0011C55.0149 31.0066 55.0258 30.9997 55.04 30.9988L56.8007 33.0061H56.0007ZM9.42457 27.0075H35.8053L34.0556 29.0071H7.42503L9.42457 27.0075ZM13.55 22.8826C13.6905 22.9618 13.8484 23.0053 14.0099 23.0085H39.3041L37.5549 25.008H11.4246L13.55 22.8826ZM45.003 19.5284L46.3027 21.0089H43.7032L45.003 19.5284ZM47.0025 23.0085C47.2886 23.0062 47.5599 22.8799 47.7453 22.6625L49.802 25.008H40.2044L41.9536 23.0085H47.0025ZM38.4584 27.0075H51.0016C51.1572 27.0048 51.3096 26.965 51.4469 26.8917L53.3014 29.0071H36.7051L38.4584 27.0075ZM33.0058 13.0108H37.0048V17.0098H33.0058V13.0108ZM17.1303 19.3023C17.3179 19.1146 17.5724 19.0089 17.8378 19.0094H42.8034L41.0538 21.0089H15.4236L17.1303 19.3023ZM5.4255 31.0066H32.306L30.5563 33.0061H3.42596L5.4255 31.0066ZM2.01223 58.0011C2.01315 55.9709 3.24152 54.1425 5.12115 53.375C7.00078 52.607 9.15775 53.0523 10.5797 54.5018C11.5024 55.4317 12.0172 56.6908 12.0104 58.0011H2.01223ZM12.869 54.1677C14.079 53.8075 15.3884 54.04 16.4008 54.7947C17.4127 55.5498 18.009 56.7384 18.009 58.0011H14.0099C14.014 56.639 13.6177 55.3059 12.869 54.1677ZM14.0099 52.002C13.1193 52.0038 12.2401 52.2029 11.4365 52.586C9.64288 51.1137 7.23327 50.6322 5.01177 51.3022V35.0057H33.0058V58.0011H20.0085C20.0053 54.6894 17.3216 52.0056 14.0099 52.002ZM35.0053 35.0057H55.0011V58.0011H49.0021V50.0025C49.0021 47.7938 47.2117 46.0034 45.003 46.0034H43.0034C40.7948 46.0034 39.0044 47.7938 39.0044 50.0025V58.0011H35.0053V35.0057ZM41.0039 58.0011V50.0025C41.0039 48.8981 41.8991 48.0029 43.0034 48.0029H45.003C46.1073 48.0029 47.0025 48.8981 47.0025 50.0025V58.0011H41.0039Z" fill="#39BAF0"/>
</g>
<defs>
<clipPath id="clip0">
<rect width="60" height="60" fill="white"/>
</clipPath>
</defs>
</svg>
