<svg width="23" height="12" viewBox="0 0 23 12" fill="none" xmlns="http://www.w3.org/2000/svg">
<path d="M22.4495 5.05957C22.4492 5.0593 22.449 5.05899 22.4487 5.05873L17.8134 0.44582C17.4662 0.100251 16.9045 0.101537 16.5589 0.448836C16.2133 0.79609 16.2146 1.35776 16.5618 1.70337L19.674 4.8004H0.887097C0.397153 4.8004 0 5.19756 0 5.6875C0 6.17744 0.397153 6.5746 0.887097 6.5746H19.6739L16.5619 9.67163C16.2146 10.0172 16.2133 10.5789 16.5589 10.9262C16.9046 11.2735 17.4663 11.2747 17.8135 10.9292L22.4488 6.31627C22.449 6.31601 22.4492 6.3157 22.4496 6.31543C22.797 5.96867 22.7959 5.40518 22.4495 5.05957Z" fill="currentColor"/>
</svg>
