<svg width="29" height="41" viewBox="0 0 29 41" fill="none" xmlns="http://www.w3.org/2000/svg">
<path d="M14.1355 0.322754C6.40908 0.322754 0.123047 6.60879 0.123047 14.3352C0.123047 24.0465 14.1493 40.6353 14.1493 40.6353C14.1493 40.6353 28.1479 23.5689 28.1479 14.3352C28.1479 6.60879 21.8621 0.322754 14.1355 0.322754ZM18.3633 18.438C17.1975 19.6036 15.6666 20.1865 14.1355 20.1865C12.6046 20.1865 11.0732 19.6036 9.90788 18.438C7.57658 16.107 7.57658 12.3139 9.90788 9.9826C11.0367 8.85324 12.5384 8.23123 14.1355 8.23123C15.7326 8.23123 17.234 8.85348 18.3633 9.9826C20.6946 12.3139 20.6946 16.107 18.3633 18.438Z" fill="#39BAF0"/>
</svg>
