<svg width="10" height="14" viewBox="0 0 10 14" fill="none" xmlns="http://www.w3.org/2000/svg">
<path d="M3.6515 6.99704L8.88886 12.2346C9.03307 12.3785 9.11241 12.5709 9.11241 12.776C9.11241 12.9812 9.03307 13.1734 8.88886 13.3175L8.42994 13.7762C8.28595 13.9206 8.09348 14 7.88838 14C7.68327 14 7.49103 13.9206 7.34693 13.7762L1.11102 7.54042C0.96635 7.39587 0.88713 7.20272 0.8877 6.99738C0.887131 6.79114 0.966236 6.59821 1.11102 6.45354L7.34113 0.223773C7.48522 0.0794479 7.67747 1.18716e-06 7.88269 1.22304e-06C8.08779 1.2589e-06 8.28004 0.0794481 8.42425 0.223773L8.88306 0.682473C9.18161 0.981025 9.18161 1.46704 8.88306 1.76548L3.6515 6.99704Z" fill="#323B47"/>
</svg>
