<svg width="14" height="14" fill="none" xmlns="http://www.w3.org/2000/svg"><g clip-path="url(#clip1)"><path d="M6.997 8.348l5.238-5.237a.76.76 0 0 1 .541-.223.76.76 0 0 1 .542.223l.458.46a.76.76 0 0 1 .224.54.76.76 0 0 1-.224.542L7.54 10.89a.76.76 0 0 1-.543.223.76.76 0 0 1-.543-.223l-6.23-6.23A.76.76 0 0 1 0 4.117a.76.76 0 0 1 .224-.541l.458-.46a.767.767 0 0 1 1.083 0l5.232 5.232z" fill="#323B47"/></g><defs><clipPath id="clip1"><path fill="#fff" transform="matrix(0 -1 -1 0 14 14)" d="M0 0h14v14H0z"/></clipPath></defs></svg>
