<svg width="60" height="60" viewBox="0 0 60 60" fill="none" xmlns="http://www.w3.org/2000/svg">
<path d="M58.9655 28.0759H45.7345V25.5207C45.7338 25.1475 45.5322 24.8036 45.2069 24.6207L31.0345 16.6552V12.6H33.8379V14.1414C33.8379 14.7127 34.3011 15.1759 34.8724 15.1759H43.3241C43.8954 15.1756 44.3584 14.7123 44.3582 14.141C44.3582 14.0213 44.3373 13.9024 44.2966 13.7897L43.4483 11.3793L44.3069 9.02071C44.5011 8.48342 44.2231 7.89041 43.6858 7.69618C43.5732 7.65545 43.4543 7.63463 43.3345 7.6345H39.4862V6.1345C39.4862 5.56321 39.023 5.10002 38.4517 5.10002H31.0345V3.83795C31.0345 3.26666 30.5713 2.80347 30 2.80347C29.4287 2.80347 28.9655 3.26666 28.9655 3.83795V16.6552L14.7931 24.6104C14.4678 24.7932 14.2662 25.1372 14.2655 25.5104V28.0655H1.03448C0.46319 28.0655 0 28.5287 0 29.1V56.1621C0 56.7334 0.46319 57.1966 1.03448 57.1966H58.9655C59.5368 57.1966 60 56.7334 60 56.1621V29.1104C60 28.5391 59.5368 28.0759 58.9655 28.0759ZM39.4862 11.5655L39.4448 11.5242V9.74485H41.8034L41.3793 11.069C41.2946 11.2994 41.2946 11.5523 41.3793 11.7828L41.8655 13.1069H35.9069V12.6H38.4517C39.023 12.6 39.4862 12.1368 39.4862 11.5655ZM31.0345 7.16898H37.4172V8.71036V10.5311H31.0345V7.16898ZM14.2655 55.1276H2.06897V30.1448H14.2655V55.1276ZM28.9655 55.1276H23.5345V43.3138H28.9655V55.1276ZM36.4655 55.1276H31.0345V43.3138H36.4655V55.1276ZM43.7069 55.1276H38.5345V42.2793C38.5345 41.708 38.0713 41.2449 37.5 41.2449H22.5C21.9287 41.2449 21.4655 41.708 21.4655 42.2793V55.1276H16.2931V26.1621L30 18.4448L43.6655 26.1207L43.7069 29.1V55.1276ZM57.931 55.1276H45.7345V30.1448H57.931V55.1276Z" fill="#39BAF0"/>
<path d="M30.0005 21.6104C27.6049 21.616 25.666 23.5596 25.666 25.9552C25.6717 28.3491 27.6169 30.285 30.0108 30.2793C32.4048 30.2736 34.3407 28.3284 34.335 25.9345C34.3293 23.5447 32.3903 21.6104 30.0005 21.6104ZM30.0005 28.2103C28.7493 28.2047 27.7396 27.1857 27.7453 25.9345C27.751 24.6914 28.7573 23.685 30.0005 23.6793C31.2534 23.685 32.266 24.7023 32.266 25.9552H32.2764C32.2707 27.2064 31.2517 28.216 30.0005 28.2103Z" fill="#39BAF0"/>
<path d="M6.63146 32.4207H4.5625V36.5586H6.63146V32.4207Z" fill="#39BAF0"/>
<path d="M11.7311 32.4207H9.66211V36.5586H11.7311V32.4207Z" fill="#39BAF0"/>
<path d="M23.5754 32.4207H19.4375V34.4896H23.5754V32.4207Z" fill="#39BAF0"/>
<path d="M32.0696 32.4207H27.9316V34.4896H32.0696V32.4207Z" fill="#39BAF0"/>
<path d="M40.5618 32.4207H36.4238V34.4896H40.5618V32.4207Z" fill="#39BAF0"/>
<path d="M23.5754 37.2415H19.4375V39.3104H23.5754V37.2415Z" fill="#39BAF0"/>
<path d="M32.0696 37.2415H27.9316V39.3104H32.0696V37.2415Z" fill="#39BAF0"/>
<path d="M40.5618 37.2415H36.4238V39.3104H40.5618V37.2415Z" fill="#39BAF0"/>
<path d="M6.63146 40.562H4.5625V44.6999H6.63146V40.562Z" fill="#39BAF0"/>
<path d="M11.7311 40.562H9.66211V44.6999H11.7311V40.562Z" fill="#39BAF0"/>
<path d="M6.63146 48.7139H4.5625V52.8518H6.63146V48.7139Z" fill="#39BAF0"/>
<path d="M11.7311 48.7139H9.66211V52.8518H11.7311V48.7139Z" fill="#39BAF0"/>
<path d="M50.3385 32.4207H48.2695V36.5586H50.3385V32.4207Z" fill="#39BAF0"/>
<path d="M55.4381 32.4207H53.3691V36.5586H55.4381V32.4207Z" fill="#39BAF0"/>
<path d="M50.3385 40.562H48.2695V44.6999H50.3385V40.562Z" fill="#39BAF0"/>
<path d="M55.4381 40.562H53.3691V44.6999H55.4381V40.562Z" fill="#39BAF0"/>
<path d="M50.3385 48.7139H48.2695V52.8518H50.3385V48.7139Z" fill="#39BAF0"/>
<path d="M55.4381 48.7139H53.3691V52.8518H55.4381V48.7139Z" fill="#39BAF0"/>
</svg>
