<svg width="60" height="60" viewBox="0 0 60 60" fill="none" xmlns="http://www.w3.org/2000/svg">
<path d="M59 9.5H48V1.5C48 0.94775 47.5522 0.5 47 0.5H13C12.4478 0.5 12 0.94775 12 1.5V15.5H1C0.44775 15.5 0 15.9478 0 16.5V57.5C0 58.0522 0.44775 58.5 1 58.5C1.55225 58.5 2 58.0522 2 57.5V17.5H12V58.5C12 59.0522 12.4478 59.5 13 59.5H47C47.5522 59.5 48 59.0522 48 58.5V11.5H58V57.5C58 58.0522 58.4478 58.5 59 58.5C59.5522 58.5 60 58.0522 60 57.5V10.5C60 9.94775 59.5522 9.5 59 9.5ZM29 57.5H25V48.5H29V57.5ZM35 57.5H31V48.5H35V57.5ZM46 57.5H37V47.5C37 46.9478 36.5522 46.5 36 46.5H24C23.4478 46.5 23 46.9478 23 47.5V57.5H14V2.5H46V57.5Z" fill="#39BAF0"/>
<path d="M23 4.5H17C16.4477 4.5 16 4.94775 16 5.5V11.5C16 12.0522 16.4477 12.5 17 12.5H23C23.5522 12.5 24 12.0522 24 11.5V5.5C24 4.94775 23.5522 4.5 23 4.5ZM22 10.5H18V6.5H22V10.5Z" fill="#39BAF0"/>
<path d="M33 4.5H27C26.4478 4.5 26 4.94775 26 5.5V11.5C26 12.0522 26.4478 12.5 27 12.5H33C33.5523 12.5 34 12.0522 34 11.5V5.5C34 4.94775 33.5523 4.5 33 4.5ZM32 10.5H28V6.5H32V10.5Z" fill="#39BAF0"/>
<path d="M43 4.5H37C36.4477 4.5 36 4.94775 36 5.5V11.5C36 12.0522 36.4477 12.5 37 12.5H43C43.5522 12.5 44 12.0522 44 11.5V5.5C44 4.94775 43.5522 4.5 43 4.5ZM42 10.5H38V6.5H42V10.5Z" fill="#39BAF0"/>
<path d="M23 14.5H17C16.4477 14.5 16 14.9478 16 15.5V21.5C16 22.0523 16.4477 22.5 17 22.5H23C23.5522 22.5 24 22.0523 24 21.5V15.5C24 14.9478 23.5522 14.5 23 14.5ZM22 20.5H18V16.5H22V20.5Z" fill="#39BAF0"/>
<path d="M33 14.5H27C26.4478 14.5 26 14.9478 26 15.5V21.5C26 22.0523 26.4478 22.5 27 22.5H33C33.5523 22.5 34 22.0523 34 21.5V15.5C34 14.9478 33.5523 14.5 33 14.5ZM32 20.5H28V16.5H32V20.5Z" fill="#39BAF0"/>
<path d="M43 14.5H37C36.4477 14.5 36 14.9478 36 15.5V21.5C36 22.0523 36.4477 22.5 37 22.5H43C43.5522 22.5 44 22.0523 44 21.5V15.5C44 14.9478 43.5522 14.5 43 14.5ZM42 20.5H38V16.5H42V20.5Z" fill="#39BAF0"/>
<path d="M23 24.5H17C16.4477 24.5 16 24.9478 16 25.5V31.5C16 32.0523 16.4477 32.5 17 32.5H23C23.5522 32.5 24 32.0523 24 31.5V25.5C24 24.9478 23.5522 24.5 23 24.5ZM22 30.5H18V26.5H22V30.5Z" fill="#39BAF0"/>
<path d="M33 24.5H27C26.4478 24.5 26 24.9478 26 25.5V31.5C26 32.0523 26.4478 32.5 27 32.5H33C33.5523 32.5 34 32.0523 34 31.5V25.5C34 24.9478 33.5523 24.5 33 24.5ZM32 30.5H28V26.5H32V30.5Z" fill="#39BAF0"/>
<path d="M43 24.5H37C36.4477 24.5 36 24.9478 36 25.5V31.5C36 32.0523 36.4477 32.5 37 32.5H43C43.5522 32.5 44 32.0523 44 31.5V25.5C44 24.9478 43.5522 24.5 43 24.5ZM42 30.5H38V26.5H42V30.5Z" fill="#39BAF0"/>
<path d="M23 34.5H17C16.4477 34.5 16 34.9477 16 35.5V41.5C16 42.0522 16.4477 42.5 17 42.5H23C23.5522 42.5 24 42.0522 24 41.5V35.5C24 34.9477 23.5522 34.5 23 34.5ZM22 40.5H18V36.5H22V40.5Z" fill="#39BAF0"/>
<path d="M33 34.5H27C26.4478 34.5 26 34.9477 26 35.5V41.5C26 42.0522 26.4478 42.5 27 42.5H33C33.5523 42.5 34 42.0522 34 41.5V35.5C34 34.9477 33.5523 34.5 33 34.5ZM32 40.5H28V36.5H32V40.5Z" fill="#39BAF0"/>
<path d="M43 34.5H37C36.4477 34.5 36 34.9477 36 35.5V41.5C36 42.0522 36.4477 42.5 37 42.5H43C43.5522 42.5 44 42.0522 44 41.5V35.5C44 34.9477 43.5522 34.5 43 34.5ZM42 40.5H38V36.5H42V40.5Z" fill="#39BAF0"/>
<path d="M6 19.5H5C4.44775 19.5 4 19.9477 4 20.5V21.5C4 22.0522 4.44775 22.5 5 22.5H6C6.55225 22.5 7 22.0522 7 21.5V20.5C7 19.9477 6.55225 19.5 6 19.5Z" fill="#39BAF0"/>
<path d="M10 19.5H9C8.44775 19.5 8 19.9477 8 20.5V21.5C8 22.0522 8.44775 22.5 9 22.5H10C10.5522 22.5 11 22.0522 11 21.5V20.5C11 19.9477 10.5522 19.5 10 19.5Z" fill="#39BAF0"/>
<path d="M6 23.5H5C4.44775 23.5 4 23.9477 4 24.5V25.5C4 26.0522 4.44775 26.5 5 26.5H6C6.55225 26.5 7 26.0522 7 25.5V24.5C7 23.9477 6.55225 23.5 6 23.5Z" fill="#39BAF0"/>
<path d="M10 23.5H9C8.44775 23.5 8 23.9477 8 24.5V25.5C8 26.0522 8.44775 26.5 9 26.5H10C10.5522 26.5 11 26.0522 11 25.5V24.5C11 23.9477 10.5522 23.5 10 23.5Z" fill="#39BAF0"/>
<path d="M6 27.5H5C4.44775 27.5 4 27.9477 4 28.5V29.5C4 30.0522 4.44775 30.5 5 30.5H6C6.55225 30.5 7 30.0522 7 29.5V28.5C7 27.9477 6.55225 27.5 6 27.5Z" fill="#39BAF0"/>
<path d="M10 27.5H9C8.44775 27.5 8 27.9477 8 28.5V29.5C8 30.0522 8.44775 30.5 9 30.5H10C10.5522 30.5 11 30.0522 11 29.5V28.5C11 27.9477 10.5522 27.5 10 27.5Z" fill="#39BAF0"/>
<path d="M6 31.5H5C4.44775 31.5 4 31.9477 4 32.5V33.5C4 34.0522 4.44775 34.5 5 34.5H6C6.55225 34.5 7 34.0522 7 33.5V32.5C7 31.9477 6.55225 31.5 6 31.5Z" fill="#39BAF0"/>
<path d="M10 31.5H9C8.44775 31.5 8 31.9477 8 32.5V33.5C8 34.0522 8.44775 34.5 9 34.5H10C10.5522 34.5 11 34.0522 11 33.5V32.5C11 31.9477 10.5522 31.5 10 31.5Z" fill="#39BAF0"/>
<path d="M6 35.5H5C4.44775 35.5 4 35.9477 4 36.5V37.5C4 38.0522 4.44775 38.5 5 38.5H6C6.55225 38.5 7 38.0522 7 37.5V36.5C7 35.9477 6.55225 35.5 6 35.5Z" fill="#39BAF0"/>
<path d="M10 35.5H9C8.44775 35.5 8 35.9477 8 36.5V37.5C8 38.0522 8.44775 38.5 9 38.5H10C10.5522 38.5 11 38.0522 11 37.5V36.5C11 35.9477 10.5522 35.5 10 35.5Z" fill="#39BAF0"/>
<path d="M6 39.5H5C4.44775 39.5 4 39.9477 4 40.5V41.5C4 42.0522 4.44775 42.5 5 42.5H6C6.55225 42.5 7 42.0522 7 41.5V40.5C7 39.9477 6.55225 39.5 6 39.5Z" fill="#39BAF0"/>
<path d="M10 39.5H9C8.44775 39.5 8 39.9477 8 40.5V41.5C8 42.0522 8.44775 42.5 9 42.5H10C10.5522 42.5 11 42.0522 11 41.5V40.5C11 39.9477 10.5522 39.5 10 39.5Z" fill="#39BAF0"/>
<path d="M6 43.5H5C4.44775 43.5 4 43.9477 4 44.5V45.5C4 46.0522 4.44775 46.5 5 46.5H6C6.55225 46.5 7 46.0522 7 45.5V44.5C7 43.9477 6.55225 43.5 6 43.5Z" fill="#39BAF0"/>
<path d="M10 43.5H9C8.44775 43.5 8 43.9477 8 44.5V45.5C8 46.0522 8.44775 46.5 9 46.5H10C10.5522 46.5 11 46.0522 11 45.5V44.5C11 43.9477 10.5522 43.5 10 43.5Z" fill="#39BAF0"/>
<path d="M6 47.5H5C4.44775 47.5 4 47.9477 4 48.5V49.5C4 50.0522 4.44775 50.5 5 50.5H6C6.55225 50.5 7 50.0522 7 49.5V48.5C7 47.9477 6.55225 47.5 6 47.5Z" fill="#39BAF0"/>
<path d="M10 47.5H9C8.44775 47.5 8 47.9477 8 48.5V49.5C8 50.0522 8.44775 50.5 9 50.5H10C10.5522 50.5 11 50.0522 11 49.5V48.5C11 47.9477 10.5522 47.5 10 47.5Z" fill="#39BAF0"/>
<path d="M6 51.5H5C4.44775 51.5 4 51.9477 4 52.5V53.5C4 54.0522 4.44775 54.5 5 54.5H6C6.55225 54.5 7 54.0522 7 53.5V52.5C7 51.9477 6.55225 51.5 6 51.5Z" fill="#39BAF0"/>
<path d="M10 51.5H9C8.44775 51.5 8 51.9477 8 52.5V53.5C8 54.0522 8.44775 54.5 9 54.5H10C10.5522 54.5 11 54.0522 11 53.5V52.5C11 51.9477 10.5522 51.5 10 51.5Z" fill="#39BAF0"/>
<path d="M55 13.5H51C50.4478 13.5 50 13.9477 50 14.5V18.5C50 19.0522 50.4478 19.5 51 19.5H55C55.5523 19.5 56 19.0522 56 18.5V14.5C56 13.9477 55.5523 13.5 55 13.5ZM54 17.5H52V15.5H54V17.5Z" fill="#39BAF0"/>
<path d="M55 21.5H51C50.4478 21.5 50 21.9477 50 22.5V26.5C50 27.0522 50.4478 27.5 51 27.5H55C55.5523 27.5 56 27.0522 56 26.5V22.5C56 21.9477 55.5523 21.5 55 21.5ZM54 25.5H52V23.5H54V25.5Z" fill="#39BAF0"/>
<path d="M55 29.5H51C50.4478 29.5 50 29.9477 50 30.5V34.5C50 35.0522 50.4478 35.5 51 35.5H55C55.5523 35.5 56 35.0522 56 34.5V30.5C56 29.9477 55.5523 29.5 55 29.5ZM54 33.5H52V31.5H54V33.5Z" fill="#39BAF0"/>
<path d="M55 37.5H51C50.4478 37.5 50 37.9477 50 38.5V42.5C50 43.0522 50.4478 43.5 51 43.5H55C55.5523 43.5 56 43.0522 56 42.5V38.5C56 37.9477 55.5523 37.5 55 37.5ZM54 41.5H52V39.5H54V41.5Z" fill="#39BAF0"/>
<path d="M55 45.5H51C50.4478 45.5 50 45.9477 50 46.5V50.5C50 51.0522 50.4478 51.5 51 51.5H55C55.5523 51.5 56 51.0522 56 50.5V46.5C56 45.9477 55.5523 45.5 55 45.5ZM54 49.5H52V47.5H54V49.5Z" fill="#39BAF0"/>
</svg>
