<svg width="14" height="14" fill="none" xmlns="http://www.w3.org/2000/svg"><g clip-path="url(#clip0)"><path d="M8.35 7.003L3.111 1.765a.76.76 0 0 1-.223-.541.76.76 0 0 1 .223-.542l.459-.458A.76.76 0 0 1 4.113 0a.76.76 0 0 1 .541.224L10.89 6.46a.76.76 0 0 1 .223.543.76.76 0 0 1-.223.543l-6.23 6.23a.76.76 0 0 1-.542.224.76.76 0 0 1-.541-.224l-.46-.458a.767.767 0 0 1 0-1.083L8.35 7.003z" fill="#323B47"/></g><defs><clipPath id="clip0"><path fill="#fff" transform="matrix(-1 0 0 1 14 0)" d="M0 0h14v14H0z"/></clipPath></defs></svg>