<svg width="60" height="60" viewBox="0 0 60 60" fill="none" xmlns="http://www.w3.org/2000/svg">
<path d="M59 53.2775V29.9995C58.9972 29.8448 58.9578 29.693 58.885 29.5565H58.895L56.447 24.6615C55.943 23.641 54.9022 22.9963 53.764 22.9995H47V21.9995C46.9999 21.7343 46.8946 21.48 46.707 21.2925L41.293 15.8785C40.9331 15.5224 40.488 15.2645 40 15.1295V8.38449L42 7.84749V10.2695V10.2765C41.9989 11.3034 42.5121 12.2626 43.367 12.8315C43.6642 13.0298 44.0447 13.0544 44.365 12.8961C44.6854 12.7379 44.8969 12.4207 44.92 12.0641C44.9431 11.7076 44.7742 11.3658 44.477 11.1675C44.1786 10.9693 43.9995 10.6347 44 10.2765V10.2695V7.22249C44.7 6.81819 45.0878 6.03227 44.9827 5.23077C44.8777 4.42926 44.3005 3.76979 43.52 3.55949L30.514 0.0674915C30.1772 -0.0224972 29.8228 -0.0224972 29.486 0.0674915L16.48 3.55949C15.6053 3.79828 14.9986 4.59283 14.9986 5.49949C14.9986 6.40616 15.6053 7.2007 16.48 7.43949L20 8.38449V14.9995H19.937C19.048 14.9999 18.2051 15.3957 17.637 16.0795L13.237 21.3595C13.0854 21.5384 13.0015 21.765 13 21.9995V22.9995H6.236C5.09873 22.9955 4.05815 23.6386 3.553 24.6575L1.105 29.5525H1.115C1.04155 29.6902 1.00212 29.8435 1 29.9995V53.2775C0.383249 53.6319 0.002145 54.2882 0 54.9995V56.9995C0 58.1041 0.89543 58.9995 2 58.9995H15.278C15.6324 59.6163 16.2887 59.9974 17 59.9995H43C43.7113 59.9974 44.3676 59.6163 44.722 58.9995H58C59.1046 58.9995 60 58.1041 60 56.9995V54.9995C59.9979 54.2882 59.6168 53.6319 59 53.2775ZM44 52.9995H43V30.9995H57V52.9995H44ZM33 52.9995H27V41.9995H33V52.9995ZM34 39.9995H26C25.4477 39.9995 25 40.4472 25 40.9995V52.9995H19V30.9995H41V52.9995H35V40.9995C35 40.4472 34.5523 39.9995 34 39.9995ZM45 22.9995V24.9995H15V22.9995H45ZM43 26.9995V28.9995H17V26.9995H43ZM53.764 24.9995C54.1431 24.9983 54.4898 25.2128 54.658 25.5525L56.382 28.9995H45V26.9995C46.1046 26.9995 47 26.1041 47 24.9995H53.764ZM30 1.99949L43.014 5.49949H43.001L30.005 8.99949L17 5.49149L30 1.99949ZM22 8.92149L29.486 10.9315C29.8227 11.0221 30.1773 11.0221 30.514 10.9315L38 8.92149V14.9995H22V8.92149ZM19.169 17.3595C19.3589 17.1315 19.6403 16.9996 19.937 16.9995H39.171C39.4365 16.9993 39.6913 17.1047 39.879 17.2925L43.586 20.9995H16.135L19.169 17.3595ZM5.342 25.5525C5.51018 25.2128 5.85693 24.9983 6.236 24.9995H13C13 26.1041 13.8954 26.9995 15 26.9995V28.9995H3.618L5.342 25.5525ZM2 54.9995H15V56.9995H2V54.9995ZM16 52.9995H3V30.9995H17V52.9995H16ZM17 57.9995V54.9995H43V57.9995H17ZM58 56.9995H45V54.9995H58V56.9995Z" fill="#39BAF0"/>
<path d="M27.002 32.9995C26.4497 32.9995 26.002 33.4472 26.002 33.9995V35.9995C26.002 36.5518 26.4497 36.9995 27.002 36.9995C27.5542 36.9995 28.002 36.5518 28.002 35.9995V33.9995C28.002 33.4472 27.5542 32.9995 27.002 32.9995Z" fill="#39BAF0"/>
<path d="M13 33.9995C12.4477 33.9995 12 34.4472 12 34.9995V36.9995C12 37.5518 12.4477 37.9995 13 37.9995C13.5523 37.9995 14 37.5518 14 36.9995V34.9995C14 34.4472 13.5523 33.9995 13 33.9995Z" fill="#39BAF0"/>
<path d="M7 33.9995C6.44772 33.9995 6 34.4472 6 34.9995V36.9995C6 37.5518 6.44772 37.9995 7 37.9995C7.55228 37.9995 8 37.5518 8 36.9995V34.9995C8 34.4472 7.55228 33.9995 7 33.9995Z" fill="#39BAF0"/>
<path d="M13 39.9995C12.4477 39.9995 12 40.4472 12 40.9995V42.9995C12 43.5518 12.4477 43.9995 13 43.9995C13.5523 43.9995 14 43.5518 14 42.9995V40.9995C14 40.4472 13.5523 39.9995 13 39.9995Z" fill="#39BAF0"/>
<path d="M7 39.9995C6.44772 39.9995 6 40.4472 6 40.9995V42.9995C6 43.5518 6.44772 43.9995 7 43.9995C7.55228 43.9995 8 43.5518 8 42.9995V40.9995C8 40.4472 7.55228 39.9995 7 39.9995Z" fill="#39BAF0"/>
<path d="M13 45.9995C12.4477 45.9995 12 46.4472 12 46.9995V48.9995C12 49.5518 12.4477 49.9995 13 49.9995C13.5523 49.9995 14 49.5518 14 48.9995V46.9995C14 46.4472 13.5523 45.9995 13 45.9995Z" fill="#39BAF0"/>
<path d="M7 45.9995C6.44772 45.9995 6 46.4472 6 46.9995V48.9995C6 49.5518 6.44772 49.9995 7 49.9995C7.55228 49.9995 8 49.5518 8 48.9995V46.9995C8 46.4472 7.55228 45.9995 7 45.9995Z" fill="#39BAF0"/>
<path d="M53 33.9995C52.4477 33.9995 52 34.4472 52 34.9995V36.9995C52 37.5518 52.4477 37.9995 53 37.9995C53.5523 37.9995 54 37.5518 54 36.9995V34.9995C54 34.4472 53.5523 33.9995 53 33.9995Z" fill="#39BAF0"/>
<path d="M47 33.9995C46.4477 33.9995 46 34.4472 46 34.9995V36.9995C46 37.5518 46.4477 37.9995 47 37.9995C47.5523 37.9995 48 37.5518 48 36.9995V34.9995C48 34.4472 47.5523 33.9995 47 33.9995Z" fill="#39BAF0"/>
<path d="M53 39.9995C52.4477 39.9995 52 40.4472 52 40.9995V42.9995C52 43.5518 52.4477 43.9995 53 43.9995C53.5523 43.9995 54 43.5518 54 42.9995V40.9995C54 40.4472 53.5523 39.9995 53 39.9995Z" fill="#39BAF0"/>
<path d="M47 39.9995C46.4477 39.9995 46 40.4472 46 40.9995V42.9995C46 43.5518 46.4477 43.9995 47 43.9995C47.5523 43.9995 48 43.5518 48 42.9995V40.9995C48 40.4472 47.5523 39.9995 47 39.9995Z" fill="#39BAF0"/>
<path d="M53 45.9995C52.4477 45.9995 52 46.4472 52 46.9995V48.9995C52 49.5518 52.4477 49.9995 53 49.9995C53.5523 49.9995 54 49.5518 54 48.9995V46.9995C54 46.4472 53.5523 45.9995 53 45.9995Z" fill="#39BAF0"/>
<path d="M47 45.9995C46.4477 45.9995 46 46.4472 46 46.9995V48.9995C46 49.5518 46.4477 49.9995 47 49.9995C47.5523 49.9995 48 49.5518 48 48.9995V46.9995C48 46.4472 47.5523 45.9995 47 45.9995Z" fill="#39BAF0"/>
<path d="M33 32.9995C32.4477 32.9995 32 33.4472 32 33.9995V35.9995C32 36.5518 32.4477 36.9995 33 36.9995C33.5523 36.9995 34 36.5518 34 35.9995V33.9995C34 33.4472 33.5523 32.9995 33 32.9995Z" fill="#39BAF0"/>
</svg>
