<svg width="72" height="60" viewBox="0 0 72 60" fill="none" xmlns="http://www.w3.org/2000/svg">
<path d="M3.00001 33L62.8485 33L39.9315 54.828C38.7315 55.971 38.685 57.87 39.828 59.07C40.9695 60.2685 42.8685 60.3165 44.07 59.1735L70.242 34.2435C71.3745 33.1095 72 31.6035 72 30C72 28.398 71.3745 26.8905 70.1895 25.707L44.0685 0.827998C43.488 0.2745 42.744 2.55764e-06 42 2.62268e-06C41.208 2.69192e-06 40.416 0.311999 39.8265 0.931498C38.6835 2.1315 38.73 4.02901 39.93 5.17201L62.943 27L3 27C1.34401 27 4.86188e-06 28.344 5.00665e-06 30C5.15142e-06 31.656 1.34401 33 3.00001 33Z" fill="#323B47"/>
</svg>
