<svg width="12" height="8" viewBox="0 0 12 8" fill="none" xmlns="http://www.w3.org/2000/svg">
<path d="M5.96199 5.00832L1.50295 0.205215C1.38047 0.0729604 1.2167 0.000205523 1.04208 0.000205522C0.86737 0.000205522 0.703702 0.0729604 0.581024 0.205215L0.190509 0.626089C0.0676377 0.758134 7.88034e-08 0.934648 7.65604e-08 1.12275C7.43173e-08 1.31085 0.0676377 1.48715 0.190509 1.6193L5.49938 7.33817C5.62245 7.47084 5.78689 7.54349 5.9617 7.54297C6.13729 7.54349 6.30154 7.47094 6.4247 7.33817L11.7284 1.62462C11.8513 1.49247 11.9189 1.31617 11.9189 1.12797C11.9189 0.939867 11.8513 0.763563 11.7284 0.631309L11.3379 0.210538C11.0837 -0.06326 10.67 -0.06326 10.4159 0.210538L5.96199 5.00832Z" fill="black"/>
</svg>
