<svg width="50" height="50" viewBox="0 0 50 50" fill="none" xmlns="http://www.w3.org/2000/svg">
<path d="M44.3355 16.3513H40.1445C39.7457 16.3513 39.4221 16.6794 39.4221 17.0837C39.4221 17.4881 39.7457 17.8162 40.1445 17.8162H44.3355C44.7343 17.8162 45.0579 17.4881 45.0579 17.0837C45.0579 16.6794 44.7343 16.3513 44.3355 16.3513Z" fill="#ffffff"/>
<path d="M40.1445 11.8801H42.0472C42.446 11.8801 42.7696 11.5521 42.7696 11.1477C42.7696 10.743 42.446 10.4153 42.0472 10.4153H40.1445C39.7457 10.4153 39.4221 10.743 39.4221 11.1477C39.4221 11.5521 39.7457 11.8801 40.1445 11.8801Z" fill="#ffffff"/>
<path d="M40.1445 5.9436H42.7214C43.1206 5.9436 43.4438 5.61592 43.4438 5.21118C43.4438 4.80682 43.1206 4.47876 42.7214 4.47876H40.1445C39.7457 4.47876 39.4221 4.80682 39.4221 5.21118C39.4221 5.61592 39.7457 5.9436 40.1445 5.9436Z" fill="#ffffff"/>
<path d="M42.7218 28.2239H40.1445C39.7457 28.2239 39.4221 28.5516 39.4221 28.9563C39.4221 29.3607 39.7457 29.6887 40.1445 29.6887H42.7218C43.1206 29.6887 43.4442 29.3607 43.4442 28.9563C43.4442 28.5516 43.1206 28.2239 42.7218 28.2239Z" fill="#ffffff"/>
<path d="M40.1445 23.7522H42.0472C42.446 23.7522 42.7696 23.4245 42.7696 23.0198C42.7696 22.6154 42.446 22.2874 42.0472 22.2874H40.1445C39.7457 22.2874 39.4221 22.6154 39.4221 23.0198C39.4221 23.4245 39.7457 23.7522 40.1445 23.7522Z" fill="#ffffff"/>
<path d="M37.0082 30.2544V6.62498C37.0082 2.97203 34.0772 0 30.474 0C26.8714 0 23.9401 2.97203 23.9401 6.62498V30.2544C21.2409 32.3273 19.6404 35.5736 19.6404 39.016C19.6404 45.0726 24.5003 50 30.474 50C36.448 50 41.3079 45.0726 41.3079 39.016C41.3079 35.5736 39.7077 32.3273 37.0082 30.2544ZM30.474 48.5352C25.2972 48.5352 21.0852 44.265 21.0852 39.016C21.0852 35.9215 22.5781 33.009 25.0782 31.2256C25.2705 31.0883 25.3849 30.8647 25.3849 30.6263V6.62498C25.3849 3.7796 27.6679 1.46484 30.474 1.46484C33.2804 1.46484 35.5634 3.7796 35.5634 6.62498V30.6263C35.5634 30.8647 35.6778 31.0883 35.87 31.2256C38.3702 33.0093 39.8631 35.9215 39.8631 39.016C39.8631 44.265 35.6511 48.5352 30.474 48.5352Z" fill="#ffffff"/>
<path d="M33.6361 31.7058V6.62495C33.6361 4.85684 32.2177 3.4187 30.4738 3.4187C28.7303 3.4187 27.3118 4.85684 27.3118 6.62495V25.4352C27.3118 25.84 27.6354 26.1676 28.0342 26.1676C28.433 26.1676 28.7566 25.84 28.7566 25.4352V11.8801H32.1913V32.196C32.1913 32.502 32.3787 32.7758 32.6613 32.8827C35.0978 33.8028 36.7345 36.1927 36.7345 38.8298C36.7345 42.3301 33.9262 45.1774 30.4738 45.1774C27.0217 45.1774 24.2131 42.3301 24.2131 38.8298C24.2131 36.1927 25.8501 33.8028 28.2863 32.8827C28.5692 32.7755 28.7566 32.502 28.7566 32.196V28.3657C28.7566 27.9613 28.433 27.6333 28.0342 27.6333C27.6354 27.6333 27.3118 27.9613 27.3118 28.3657V31.7058C24.5747 32.9563 22.7683 35.757 22.7683 38.8298C22.7683 43.1377 26.2252 46.6423 30.4738 46.6423C34.7227 46.6423 38.1793 43.1377 38.1793 38.8298C38.1793 35.757 36.3733 32.9567 33.6361 31.7058ZM28.7566 10.4152V6.62495C28.7566 5.66479 29.5272 4.88354 30.4742 4.88354C31.4208 4.88354 32.1913 5.66479 32.1913 6.62495V10.4152H28.7566Z" fill="#ffffff"/>
<path d="M19.8248 15.6413C20.9031 15.7417 21.3685 14.2867 20.4388 13.7264C19.3082 13.045 19.3063 11.3853 20.4388 10.7028C21.3692 10.1417 20.9019 8.68714 19.8248 8.78746C18.5139 8.91068 17.5522 7.56676 18.0718 6.34148C18.4996 5.33325 17.278 4.43451 16.4653 5.15778C15.4769 6.03745 13.9189 5.52628 13.6288 4.22356C13.3902 3.15277 11.8811 3.15392 11.643 4.22356C11.3532 5.52399 9.79672 6.03859 8.80645 5.15778C7.99339 4.43375 6.77247 5.33364 7.19989 6.34148C7.72023 7.5679 6.75667 8.9103 5.44697 8.78746C4.36903 8.6879 3.90324 10.1421 4.83331 10.7028C5.96543 11.3853 5.96317 13.0454 4.83293 13.7264C3.90361 14.2867 4.36865 15.7413 5.44697 15.6413C6.75629 15.5181 7.72023 16.8609 7.19989 18.0873C6.7721 19.0955 7.99376 19.9943 8.80645 19.271C9.79484 18.3913 11.3529 18.9029 11.643 20.2052C11.8815 21.276 13.3906 21.2749 13.6288 20.2052C13.9185 18.9048 15.4754 18.3898 16.4653 19.271C17.2787 19.9947 18.4996 19.0948 18.0718 18.0873C17.5526 16.8636 18.5132 15.5185 19.8248 15.6413ZM18.8702 14.268C17.4127 14.6449 16.3908 16.051 16.489 17.591C15.0912 17.0272 13.4497 17.5559 12.6362 18.8606C11.8311 17.5693 10.1959 17.0211 8.78312 17.591C8.88057 16.0655 7.87412 14.6487 6.40187 14.268C7.3628 13.0946 7.37409 11.3483 6.40187 10.1608C7.86622 9.78234 8.88095 8.37166 8.78312 6.83777C10.1839 7.40273 11.8243 6.87058 12.6362 5.56862C13.4437 6.86371 15.0803 7.40578 16.489 6.83777C16.3915 8.36327 17.398 9.78005 18.8702 10.1608C17.9044 11.3403 17.9022 13.0862 18.8702 14.268Z" fill="#ffffff"/>
<path d="M12.6359 8.17651C10.4397 8.17651 8.65332 9.98811 8.65332 12.2148C8.65332 14.4414 10.4397 16.253 12.6359 16.253C14.832 16.253 16.6188 14.4414 16.6188 12.2148C16.6188 9.98811 14.832 8.17651 12.6359 8.17651ZM12.6359 14.7878C11.2366 14.7878 10.0981 13.6334 10.0981 12.2148C10.0981 10.7957 11.2366 9.64136 12.6359 9.64136C14.0355 9.64136 15.174 10.7957 15.174 12.2148C15.174 13.6334 14.0355 14.7878 12.6359 14.7878Z" fill="#ffffff"/>
</svg>
