<svg width="50" height="50" viewBox="0 0 50 50" fill="none" xmlns="http://www.w3.org/2000/svg">
<g clip-path="url(#clip0)">
<path d="M6.57811 47.9774C4.37436 45.7737 3.92804 42.354 5.49073 39.6625C6.76436 37.469 10.5867 30.8897 10.5867 30.8897C10.9822 30.228 11.8887 30.2408 12.298 30.8897C12.298 30.8897 16.1204 37.4691 17.394 39.6625C18.9567 42.354 18.5103 45.7738 16.307 47.9771C13.6159 50.6682 9.28113 50.6803 6.57811 47.9774ZM11.4424 33.3567C10.2393 35.4278 8.09498 39.1191 7.20246 40.6562C6.08974 42.5727 6.40859 45.0078 7.97772 46.5779C9.88795 48.4872 12.997 48.4872 14.9074 46.5775C16.4763 45.0078 16.795 42.5727 15.6823 40.6562C14.7899 39.1192 12.6456 35.4278 11.4424 33.3567ZM9.41472 12.3862C7.45025 12.3862 5.85214 10.7881 5.85214 8.82361C5.85214 6.85914 7.45025 5.26102 9.41472 5.26102C11.3792 5.26102 12.9773 6.85914 12.9773 8.82361C12.9773 10.7881 11.3792 12.3862 9.41472 12.3862ZM9.41472 7.24024C8.54169 7.24024 7.83135 7.95058 7.83135 8.82361C7.83135 9.69664 8.54169 10.407 9.41472 10.407C10.2878 10.407 10.9981 9.69664 10.9981 8.82361C10.9981 7.95058 10.2879 7.24024 9.41472 7.24024ZM42.3686 46.2308C40.677 46.2308 39.3009 44.8545 39.3009 43.163C39.3009 41.4715 40.677 40.0952 42.3686 40.0952C44.0603 40.0952 45.4364 41.4715 45.4364 43.163C45.4364 44.8545 44.0603 46.2308 42.3686 46.2308ZM42.3686 42.0744C41.7684 42.0744 41.2801 42.5628 41.2801 43.163C41.2801 43.7632 41.7684 44.2516 42.3686 44.2516C42.9688 44.2516 43.4572 43.7632 43.4572 43.163C43.4572 42.5628 42.9689 42.0744 42.3686 42.0744ZM44.1829 6.3584C43.2699 4.78581 40.7719 0.508632 40.7719 0.508632C40.3768 -0.130655 39.4829 -0.20735 39.0606 0.508632C39.0606 0.508632 36.5626 4.78591 35.6496 6.3584C34.5294 8.28784 34.8493 10.7395 36.4291 12.3193C38.3669 14.2571 41.4744 14.2482 43.4037 12.319C44.9832 10.7395 45.3032 8.28784 44.1829 6.3584ZM41.9989 10.9224C40.8506 12.0702 38.9818 12.0702 37.8337 10.9226C36.8905 9.97878 36.6989 8.51515 37.3677 7.36325C37.9041 6.43935 39.193 4.22065 39.9162 2.97572C40.6394 4.22065 41.9283 6.43935 42.4647 7.36325C43.1335 8.51515 42.9419 9.97888 41.9989 10.9224ZM35.9428 35.3439C31.5379 39.7488 24.7649 40.2938 19.7779 36.933C18.6823 36.1981 19.7779 34.5647 20.8735 35.2996L20.8751 35.2945C25.079 38.1105 30.8382 37.6639 34.5496 33.9543C38.0141 30.4876 38.7182 25.1099 36.2608 20.8776C34.2898 17.4831 29.5544 9.33118 26.8972 4.75731C24.2401 9.33118 19.5047 17.4832 17.5337 20.8776C16.1192 23.3137 15.7522 26.1294 16.3563 28.7418L16.35 28.7405C16.6445 30.0215 14.7307 30.4614 14.4362 29.1803C13.7231 26.0922 14.158 22.7634 15.8302 19.8833C18.1986 15.8045 26.0411 2.29022 26.0411 2.29022C26.4232 1.63777 27.3282 1.63302 27.7521 2.29022C27.7521 2.29022 35.5958 15.8045 37.9641 19.8833C40.8699 24.8879 40.0398 31.2469 35.9428 35.3439ZM17.1713 32.023C16.6247 32.023 16.1817 32.466 16.1817 33.0126C16.1817 33.5591 16.6247 34.0022 17.1713 34.0022C17.7178 34.0022 18.1609 33.5591 18.1609 33.0126C18.1609 32.466 17.7178 32.023 17.1713 32.023Z" fill="#39BAF0"/>
</g>
<defs>
<clipPath id="clip0">
<rect width="50" height="50" fill="white"/>
</clipPath>
</defs>
</svg>
